<svg width="47.003906" height="13.321289" viewBox="0 0 47.0039 13.3213" fill="none" xmlns="http://www.w3.org/2000/svg" xmlns:xlink="http://www.w3.org/1999/xlink">
	<desc>
			Created with Pixso.
	</desc>
	<defs/>
	<path id="Line 1" d="M44.58 6.66L39.63 11.61C39.24 12 39.24 12.62 39.63 13.02C40.03 13.42 40.65 13.42 41.05 13.02L46.7 7.36C47.1 6.97 47.1 6.34 46.7 5.95L41.05 0.29C40.65 -0.1 40.03 -0.1 39.63 0.29C39.24 0.69 39.24 1.31 39.63 1.71L44.58 6.66Z" fill="#FFFFFF" fill-opacity="1.000000" fill-rule="nonzero"/>
	<path id="Line 1" d="M43.58 7.66L39.63 11.61C39.24 12 39.24 12.62 39.63 13.02C40.03 13.42 40.65 13.42 41.05 13.02L46.7 7.36C47.1 6.97 47.1 6.34 46.7 5.95L41.05 0.29C40.65 -0.1 40.03 -0.1 39.63 0.29C39.24 0.69 39.24 1.31 39.63 1.71L43.58 5.66L0 5.66L0 7.66L43.58 7.66Z" fill="#EE364A" fill-opacity="1.000000" fill-rule="evenodd"/>
</svg>
