<svg width="228.413574" height="46.000000" viewBox="0 0 228.414 46" fill="none" xmlns="http://www.w3.org/2000/svg" xmlns:xlink="http://www.w3.org/1999/xlink">
	<desc>
			Created with Pixso.
	</desc>
	<defs/>
	<path id="Vector" d="M60.7 36.29C63.17 32.59 64.55 28.2 64.71 24.1L57.61 24.1C57.61 25.47 57.14 28.57 55.69 30.72L48.87 23.15C53.37 20.58 58.01 17.19 58.01 10.94C58.01 4.7 53.08 0 46.57 0C39.15 0 33.83 5.06 33.83 11.94C33.83 15.75 35.9 19.17 38.07 21.86C38.02 21.89 37.97 21.94 37.93 21.97C36.43 22.96 34.95 24.12 33.72 25.51C35.67 26.7 36.88 28.75 36.88 32.02C36.88 36.21 34.89 38.4 31.87 39.33C33.9 43.11 38.14 45.51 43.75 45.51C48.52 45.51 52.62 43.96 55.79 41.54L59.36 45.51L69 45.51L60.71 36.29L60.7 36.29ZM46.41 7C49.29 7 50.8 8.76 50.8 11.31C50.8 14.57 47.75 16.53 44.49 18.28C42.81 16.34 41.04 14.57 41.04 12.07C41.04 9.57 43.05 7 46.41 7ZM50.86 36.39C49.1 37.54 47.06 38.2 44.78 38.2C40.62 38.2 38.29 36.26 38.29 33.01C38.29 30.71 39.59 29.03 41.34 27.68C41.73 27.38 42.12 27.1 42.55 26.83L51.05 36.26C50.93 36.35 51 36.3 50.87 36.39L50.86 36.39Z" fill="#EE364A" fill-opacity="1.000000" fill-rule="nonzero"/>
	<path id="Vector" d="M22.6 12.9L19.37 0L13.68 0L10.42 12.9L7.42 0L0 0L6.32 21.4L13.77 21.4L16.53 10.61L19.3 21.4L26.72 21.4L33.04 0L25.58 0L22.6 12.9L22.6 12.9ZM0 30.25C0 37.71 10.17 36.85 10.17 39.04C10.17 39.75 9.63 40.09 7.81 40.09C5.56 40.09 2.78 39.33 0.18 37.58L0.18 43.98C2.48 45.29 5.33 46 8.49 46C13.32 46 17.29 44.53 17.29 39.04C17.29 31.62 7.12 32.63 7.12 30.39C7.12 29.82 7.57 29.45 8.97 29.45C11.31 29.42 13.88 30.18 15.91 31.49L15.91 25.37C13.85 24.25 10.94 23.61 8.22 23.61C3.67 23.61 0 25.74 0 30.25L0 30.25ZM86.52 21.4L79.43 21.4L79.43 0L86.52 0L86.52 7.58L88.08 7.58L92.27 0L99.88 0L93.5 10.61L99.99 21.4L92.39 21.4L87.94 13.75L86.52 13.75L86.52 21.4ZM72.67 13.94C74.77 12.87 76.26 10.89 76.26 7.55C76.26 1.71 71.8 0 67.35 0L57.63 0L57.63 7.96C57.87 8.89 58.02 9.88 58.02 10.94C58.02 12 57.87 12.97 57.63 13.87L57.63 21.4L64.72 21.4L64.72 15.07L66.16 15.07L70.47 21.4L78.08 21.4L72.68 13.94L72.67 13.94ZM67.2 9.79L64.53 9.79L64.53 5.75L67.2 5.75C68.54 5.75 69.31 6.57 69.31 7.76C69.31 8.96 68.55 9.79 67.2 9.79ZM81.85 24.1L81.85 30C81.09 25.49 77.08 24.1 73.08 24.1L64.7 24.1C64.61 26.36 64.15 28.69 63.35 30.95C63.35 30.97 63.35 30.99 63.35 31.01L63.35 39.23L68.98 45.5L70.43 45.5L70.43 39.17L71.87 39.17L76.18 45.5L83.79 45.5L78.39 38.04C80.5 36.97 81.99 34.99 81.99 31.65C81.99 31.17 81.96 30.71 81.9 30.28L87.38 30.28L87.38 45.5L94.47 45.5L94.47 30.28L100 30.28L100 24.09L81.86 24.09L81.85 24.1ZM72.92 33.89L70.26 33.89L70.26 29.84L72.92 29.84C74.27 29.84 75.05 30.67 75.05 31.87C75.05 33.07 74.27 33.89 72.92 33.89ZM18.31 24.1L18.31 45.51L25.39 45.51L25.39 39.91L27.46 39.91C32.79 39.91 36.86 38.02 36.86 32.02C36.86 26.03 32.79 24.1 27.46 24.1L18.31 24.1ZM30.01 32.02C30.01 33.49 28.99 34.11 27.41 34.11L25.23 34.11L25.23 29.92L27.41 29.92C28.99 29.92 30.01 30.54 30.01 32.02Z" fill="#FFFFFF" fill-opacity="1.000000" fill-rule="nonzero"/>
	<path id="Vector 1" d="M122 0L122 46" stroke="#EE364A" stroke-opacity="1.000000" stroke-width="4.000000"/>
	<path id="Vector" d="M171.63 6.42C172.05 6.59 172.44 6.83 172.79 7.12C173.07 7.37 173.34 7.7 173.59 8.12C173.83 8.54 173.96 9.06 173.96 9.7C173.96 10.23 173.85 10.73 173.65 11.18C173.45 11.64 173.16 12.04 172.77 12.38C172.4 12.73 171.93 13 171.38 13.2C170.83 13.39 170.21 13.49 169.52 13.49L162.98 13.49L162.98 0.2L169.1 0.2C169.79 0.2 170.4 0.29 170.93 0.48C171.47 0.66 171.91 0.91 172.28 1.22C172.65 1.53 172.93 1.9 173.13 2.33C173.32 2.75 173.42 3.2 173.42 3.68C173.42 4.16 173.32 4.59 173.14 4.93C172.95 5.27 172.74 5.56 172.51 5.79C172.26 6.04 171.96 6.26 171.63 6.42ZM166.67 5.37L168.36 5.37C168.72 5.37 169.03 5.26 169.27 5.04C169.5 4.81 169.62 4.54 169.62 4.22C169.62 3.9 169.5 3.62 169.27 3.39C169.03 3.17 168.72 3.06 168.36 3.06L166.67 3.06L166.67 5.38L166.67 5.37ZM168.68 10.64C169.11 10.64 169.45 10.5 169.73 10.23C170.01 9.96 170.16 9.64 170.16 9.27C170.16 8.9 170.02 8.59 169.73 8.31C169.45 8.04 169.1 7.9 168.68 7.9L166.67 7.9L166.67 10.64L168.68 10.64Z" fill="#FFFFFF" fill-opacity="1.000000" fill-rule="nonzero"/>
	<path id="Vector" d="M188.62 6.85C188.62 7.82 188.45 8.72 188.1 9.56C187.76 10.39 187.28 11.12 186.67 11.73C186.05 12.34 185.34 12.82 184.51 13.17C183.69 13.52 182.81 13.7 181.86 13.7C180.92 13.7 180.02 13.53 179.21 13.17C178.39 12.82 177.68 12.34 177.07 11.73C176.45 11.12 175.98 10.39 175.63 9.56C175.29 8.72 175.12 7.82 175.12 6.85C175.12 5.88 175.29 4.97 175.63 4.14C175.97 3.3 176.45 2.58 177.07 1.97C177.68 1.35 178.39 0.87 179.21 0.52C180.02 0.18 180.91 0 181.86 0C182.82 0 183.69 0.17 184.51 0.52C185.34 0.87 186.05 1.36 186.67 1.97C187.28 2.58 187.76 3.3 188.1 4.14C188.45 4.97 188.62 5.88 188.62 6.85ZM178.8 6.85C178.8 7.33 178.89 7.77 179.05 8.16C179.21 8.57 179.43 8.91 179.7 9.2C179.97 9.48 180.3 9.71 180.67 9.87C181.04 10.03 181.44 10.11 181.86 10.11C182.29 10.11 182.69 10.03 183.06 9.87C183.43 9.71 183.75 9.49 184.03 9.2C184.3 8.91 184.52 8.56 184.68 8.16C184.84 7.76 184.93 7.32 184.93 6.85C184.93 6.37 184.84 5.93 184.68 5.53C184.52 5.13 184.3 4.79 184.03 4.5C183.75 4.22 183.43 3.99 183.06 3.83C182.68 3.66 182.29 3.58 181.86 3.58C181.44 3.58 181.04 3.66 180.67 3.83C180.3 3.99 179.97 4.21 179.7 4.5C179.43 4.79 179.21 5.13 179.05 5.53C178.89 5.94 178.8 6.37 178.8 6.85Z" fill="#FFFFFF" fill-opacity="1.000000" fill-rule="nonzero"/>
	<path id="Vector" d="M196.01 0.2C196.74 0.2 197.41 0.32 198.03 0.56C198.64 0.8 199.16 1.13 199.6 1.55C200.04 1.97 200.37 2.47 200.61 3.05C200.85 3.62 200.97 4.26 200.97 4.94C200.97 5.62 200.85 6.26 200.61 6.83C200.37 7.41 200.03 7.91 199.6 8.33C199.16 8.76 198.64 9.08 198.03 9.32C197.41 9.56 196.74 9.68 196.01 9.68L194.11 9.68L194.11 13.47L190.42 13.47L190.42 0.2L196.01 0.2ZM195.7 6.32C196.12 6.32 196.47 6.18 196.75 5.91C197.03 5.64 197.17 5.32 197.17 4.95C197.17 4.58 197.04 4.26 196.75 3.99C196.47 3.71 196.12 3.58 195.7 3.58L194.11 3.58L194.11 6.32L195.7 6.32Z" fill="#FFFFFF" fill-opacity="1.000000" fill-rule="nonzero"/>
	<path id="Vector" d="M210.04 13.49L206.35 7.69L206.35 13.49L202.65 13.49L202.65 0.2L206.35 0.2L206.35 5.83L209.73 0.2L213.84 0.2L209.63 6.74L214.27 13.49L210.05 13.49L210.04 13.49Z" fill="#FFFFFF" fill-opacity="1.000000" fill-rule="nonzero"/>
	<path id="Vector" d="M167.26 21.52L171.34 21.52C171.2 21.17 171 20.85 170.74 20.57C170.52 20.33 170.22 20.11 169.86 19.91C169.5 19.72 169.04 19.62 168.48 19.62C168.03 19.62 167.65 19.7 167.32 19.87C167 20.04 166.73 20.22 166.54 20.42C166.3 20.66 166.1 20.92 165.95 21.2L162.15 20.88C162.28 20.33 162.53 19.77 162.9 19.2C163.27 18.63 163.74 18.12 164.29 17.68C164.85 17.23 165.49 16.86 166.19 16.57C166.9 16.29 167.66 16.14 168.48 16.14C169.42 16.14 170.3 16.31 171.13 16.67C171.95 17.02 172.67 17.5 173.28 18.11C173.89 18.72 174.37 19.45 174.72 20.28C175.06 21.12 175.23 22.02 175.23 22.99C175.23 23.96 175.06 24.87 174.72 25.7C174.38 26.54 173.89 27.26 173.28 27.87C172.67 28.49 171.95 28.97 171.13 29.32C170.3 29.66 169.42 29.84 168.48 29.84C167.66 29.84 166.89 29.7 166.19 29.41C165.48 29.13 164.85 28.76 164.29 28.32C163.74 27.87 163.28 27.38 162.9 26.84C162.52 26.29 162.27 25.75 162.13 25.21L165.95 24.9C166.11 25.18 166.3 25.43 166.55 25.64C166.74 25.83 167.01 26.01 167.33 26.15C167.65 26.3 168.04 26.38 168.49 26.38C169.04 26.38 169.5 26.28 169.87 26.08C170.24 25.89 170.54 25.67 170.76 25.43C170.97 25.19 171.17 24.87 171.34 24.48L167.26 24.48L167.26 21.53L167.26 21.52Z" fill="#EF384C" fill-opacity="1.000000" fill-rule="nonzero"/>
	<path id="Vector" d="M188.96 16.35L188.96 29.64L185.27 29.64L185.27 24.68L180.73 24.68L180.73 29.64L177.03 29.64L177.03 16.35L180.73 16.35L180.73 21.1L185.27 21.1L185.27 16.35L188.96 16.35Z" fill="#EF384C" fill-opacity="1.000000" fill-rule="nonzero"/>
	<path id="Vector" d="M204.05 26.05L204.05 32.06L200.35 32.06L200.35 29.64L193.81 29.64L193.81 32.06L190.11 32.06L190.11 26.05L190.96 26.05C191.14 25.95 191.3 25.82 191.46 25.65C191.6 25.49 191.74 25.3 191.85 25.05C191.97 24.82 192.06 24.51 192.12 24.15L193.07 16.35L202.56 16.35L202.56 26.05L204.04 26.05L204.05 26.05ZM198.88 19.93L196.13 19.93L195.6 24.15C195.54 24.52 195.47 24.82 195.37 25.06C195.27 25.3 195.17 25.5 195.06 25.65C194.93 25.82 194.8 25.95 194.65 26.06L198.88 26.06L198.88 19.94L198.88 19.93Z" fill="#EF384C" fill-opacity="1.000000" fill-rule="nonzero"/>
	<path id="Vector" d="M169.2 42.41C169.68 42.41 170.08 42.32 170.41 42.14C170.73 41.97 171 41.77 171.19 41.57C171.43 41.32 171.62 41.03 171.74 40.72L175.54 41.04C175.41 41.64 175.16 42.24 174.79 42.83C174.42 43.42 173.96 43.95 173.4 44.42C172.84 44.89 172.21 45.27 171.5 45.56C170.79 45.85 170.03 46 169.22 46C168.26 46 167.38 45.82 166.56 45.47C165.75 45.12 165.03 44.63 164.42 44.02C163.81 43.41 163.33 42.69 162.98 41.85C162.64 41.02 162.47 40.11 162.47 39.14C162.47 38.17 162.64 37.27 162.98 36.43C163.33 35.6 163.81 34.87 164.42 34.26C165.03 33.65 165.75 33.17 166.56 32.82C167.38 32.47 168.26 32.29 169.22 32.29C170.03 32.29 170.8 32.44 171.5 32.72C172.22 33.01 172.85 33.39 173.4 33.86C173.96 34.34 174.42 34.87 174.79 35.46C175.16 36.05 175.41 36.65 175.54 37.25L171.74 37.56C171.62 37.25 171.43 36.97 171.19 36.72C171 36.51 170.73 36.31 170.41 36.14C170.09 35.97 169.68 35.88 169.2 35.88C168.78 35.88 168.38 35.96 168.01 36.12C167.63 36.28 167.31 36.5 167.04 36.79C166.77 37.08 166.55 37.43 166.39 37.83C166.23 38.23 166.14 38.67 166.14 39.14C166.14 39.62 166.23 40.06 166.39 40.46C166.55 40.86 166.77 41.2 167.04 41.49C167.31 41.77 167.64 42 168.01 42.16C168.38 42.33 168.78 42.41 169.2 42.41Z" fill="#FFFFFF" fill-opacity="1.000000" fill-rule="nonzero"/>
	<path id="Vector" d="M189.05 32.5L189.05 45.78L185.35 45.78L185.35 36.08L180.81 36.08L180.81 45.78L177.12 45.78L177.12 32.5L189.05 32.5Z" fill="#FFFFFF" fill-opacity="1.000000" fill-rule="nonzero"/>
	<path id="Vector" d="M204.35 39.14C204.35 40.11 204.17 41.02 203.83 41.85C203.49 42.69 203.01 43.41 202.4 44.02C201.78 44.64 201.06 45.12 200.24 45.47C199.42 45.81 198.53 46 197.59 46C196.65 46 195.75 45.82 194.94 45.47C194.12 45.12 193.41 44.63 192.8 44.02C192.18 43.41 191.71 42.69 191.36 41.85C191.02 41.02 190.84 40.11 190.84 39.14C190.84 38.17 191.02 37.27 191.36 36.43C191.7 35.6 192.18 34.87 192.8 34.26C193.41 33.65 194.12 33.17 194.94 32.82C195.75 32.47 196.64 32.29 197.59 32.29C198.55 32.29 199.42 32.46 200.24 32.82C201.06 33.17 201.78 33.65 202.4 34.26C203.01 34.87 203.48 35.6 203.83 36.43C204.17 37.27 204.35 38.17 204.35 39.14ZM194.53 39.14C194.53 39.62 194.62 40.06 194.78 40.46C194.94 40.86 195.16 41.2 195.43 41.49C195.7 41.77 196.03 42 196.4 42.16C196.77 42.33 197.17 42.41 197.59 42.41C198.02 42.41 198.42 42.33 198.79 42.16C199.15 42 199.48 41.78 199.75 41.49C200.03 41.2 200.25 40.86 200.41 40.46C200.57 40.05 200.65 39.62 200.65 39.14C200.65 38.67 200.57 38.22 200.41 37.83C200.25 37.42 200.03 37.08 199.75 36.79C199.48 36.51 199.15 36.28 198.79 36.12C198.41 35.96 198.02 35.88 197.59 35.88C197.17 35.88 196.77 35.96 196.4 36.12C196.02 36.28 195.7 36.5 195.43 36.79C195.16 37.08 194.94 37.43 194.78 37.83C194.62 38.23 194.53 38.67 194.53 39.14Z" fill="#FFFFFF" fill-opacity="1.000000" fill-rule="nonzero"/>
	<path id="Vector" d="M211.74 32.5C212.47 32.5 213.14 32.62 213.75 32.85C214.37 33.09 214.89 33.42 215.33 33.84C215.77 34.27 216.1 34.76 216.34 35.34C216.58 35.92 216.7 36.55 216.7 37.23C216.7 37.92 216.58 38.56 216.34 39.13C216.1 39.71 215.76 40.2 215.33 40.63C214.89 41.05 214.37 41.38 213.75 41.61C213.14 41.85 212.47 41.97 211.74 41.97L209.84 41.97L209.84 45.77L206.15 45.77L206.15 32.48L211.74 32.48L211.74 32.5ZM211.43 38.61C211.85 38.61 212.2 38.47 212.48 38.2C212.76 37.93 212.9 37.61 212.9 37.24C212.9 36.87 212.76 36.56 212.48 36.28C212.2 36.01 211.84 35.87 211.43 35.87L209.84 35.87L209.84 38.61L211.43 38.61Z" fill="#FFFFFF" fill-opacity="1.000000" fill-rule="nonzero"/>
	<path id="Vector" d="M224.83 45.78L221.13 45.78L221.13 36.08L217.54 36.08L217.54 32.49L228.41 32.49L228.41 36.08L224.82 36.08L224.82 45.78L224.83 45.78Z" fill="#FFFFFF" fill-opacity="1.000000" fill-rule="nonzero"/>
	<rect id="Rectangle 610" x="144.000000" width="14.000000" height="46.000000" fill="#EE364A" fill-opacity="1.000000"/>
	<path id="Vector" d="M152.06 8.04L149.53 8.88L152.06 9.72L152.06 8.04ZM153.56 10.2L155 10.68L155 12.48L147.44 9.78L147.44 7.98L155 5.28L155 7.08L153.56 7.56L153.56 10.2Z" fill="#FFFFFF" fill-opacity="1.000000" fill-rule="nonzero"/>
	<path id="Vector" d="M147.44 18.79L147.44 13.87L149.12 13.87L149.12 17.05L155 17.05L155 18.79L147.44 18.79Z" fill="#FFFFFF" fill-opacity="1.000000" fill-rule="nonzero"/>
	<path id="Vector" d="M147.44 26.65L151.94 26.65L147.44 23.59L147.44 22.03L155 22.03L155 23.77L150.5 23.77L155 26.83L155 28.39L147.44 28.39L147.44 26.65Z" fill="#FFFFFF" fill-opacity="1.000000" fill-rule="nonzero"/>
	<path id="Vector" d="M147.44 31.63L155 31.63L155 33.37L149.12 33.37L149.12 35.41L152.72 35.71C153.47 35.77 154.05 36 154.46 36.39C154.86 36.78 155.06 37.29 155.06 37.93C155.06 38.02 155.05 38.11 155.04 38.2C155.04 38.29 155.04 38.37 155.03 38.43C155.02 38.51 155.01 38.58 155 38.65L153.5 38.65L153.5 38.41C153.5 38.13 153.39 37.91 153.2 37.72C153 37.53 152.72 37.42 152.36 37.39L147.44 36.97L147.44 31.63Z" fill="#FFFFFF" fill-opacity="1.000000" fill-rule="nonzero"/>
</svg>
