<svg width="34.000000" height="34.000000" viewBox="0 0 34 34" fill="none" xmlns="http://www.w3.org/2000/svg" xmlns:xlink="http://www.w3.org/1999/xlink">
	<desc>
			Created with Pixso.
	</desc>
	<defs/>
	<path id="Vector" d="M17 0C7.61 0 0 7.61 0 17C0 26.38 7.61 34 17 34C26.38 34 34 26.38 34 17C34 7.61 26.38 0 17 0ZM24.88 11.55C24.63 14.24 23.52 20.77 22.96 23.78C22.72 25.05 22.25 25.48 21.81 25.53C20.82 25.61 20.07 24.88 19.12 24.25C17.62 23.27 16.77 22.66 15.33 21.7C13.65 20.6 14.73 19.99 15.7 19C15.96 18.75 20.31 14.79 20.39 14.43C20.41 14.37 20.41 14.32 20.39 14.26C20.38 14.21 20.35 14.16 20.31 14.12C20.21 14.04 20.07 14.07 19.95 14.09C19.8 14.12 17.42 15.7 12.78 18.83C12.1 19.29 11.49 19.53 10.94 19.51C10.33 19.49 9.18 19.17 8.31 18.88C7.24 18.54 6.4 18.36 6.47 17.76C6.51 17.45 6.93 17.15 7.73 16.83C12.69 14.67 15.99 13.24 17.64 12.56C22.37 10.59 23.34 10.25 23.98 10.25C24.12 10.25 24.44 10.28 24.64 10.45C24.81 10.59 24.87 10.77 24.88 10.91C24.87 11.01 24.9 11.32 24.88 11.55Z" fill="#FFFFFF" fill-opacity="1.000000" fill-rule="nonzero"/>
</svg>
