<svg width="100.181213" height="170.000000" viewBox="0 0 100.181 170" fill="none" xmlns="http://www.w3.org/2000/svg" xmlns:xlink="http://www.w3.org/1999/xlink">
	<path id="Union" d="M76.17 2.37988C76.17 1.06982 75.1 0 73.79 0L73.79 0.00976562L16.67 0.00976562C15.34 0.00976562 14.29 1.08008 14.29 2.39014L14.29 4.77002L2.38 4.77002C1.07001 4.77002 0 5.83984 0 7.1499L0 31.02C0.0400085 43.25 6.25 54.6201 16.56 61.1899C16.14 67.2998 10.88 71.96 4.78 71.5801C3.47 71.5801 2.39999 72.6401 2.39999 73.96C2.39999 75.2798 3.47 76.3398 4.78 76.3398C12.35 76.79 19.13 71.6802 20.8 64.2598C23.98 68.4102 28.17 71.6899 32.96 73.79C30.23 76.6001 30.31 81.1099 33.12 83.8501C34.25 84.9502 35.73 85.6401 37.31 85.8101L31.57 104.98L58.91 104.98L53.17 85.8101C57.07 85.3999 59.89 81.8799 59.47 77.9902C59.3 76.4102 58.61 74.9302 57.5 73.79C62.29 71.6899 66.47 68.4102 69.66 64.2598C71.33 71.6802 78.11 76.7998 85.68 76.3398C87.01 76.3398 88.06 75.2598 88.06 73.96C88.06 72.6602 87 71.5801 85.68 71.5801C79.59 71.9902 74.3 67.3701 73.9 61.25L73.9 61.1899C84.18 54.6099 90.41 43.23 90.44 31.0098L90.44 7.14014C90.44 5.83984 89.38 4.75977 88.06 4.75977L76.17 4.75977L76.17 2.37988ZM15.72 54.6899C8.78253 48.7822 4.77295 40.1465 4.75003 31.04L4.75 31.0298L4.75 9.54004L14.27 9.54004L14.27 45.3398C14.27 48.5098 14.76 51.6602 15.72 54.6899ZM76.16 45.3398L76.16 9.54004L85.67 9.54004L85.67 31.0098C85.66 40.1201 81.64 48.7798 74.71 54.6699C75.62 51.8301 76.1 48.8799 76.16 45.9102L76.16 45.3398ZM67.41 109.27L67.4 109.27L23.03 109.27C20.32 109.27 18.12 111.47 18.12 114.19L18.12 139.23C18.12 141.95 20.32 144.15 23.03 144.15L56.3 144.15C59.48 137.13 65.21 131.51 72.31 128.47L72.31 114.19C72.31 111.473 70.1154 109.275 67.41 109.27ZM92.1966 159.008L94.0761 170L84.2119 164.813L74.3408 170L76.2203 159.008L68.2357 151.225L79.2764 149.624L84.2119 139.621L89.1406 149.624L100.181 151.225L92.1966 159.008ZM53.88 155.89C53.88 153 54.28 150.2 55.02 147.54L15.58 147.54C11.62 147.54 8.39999 150.76 8.39999 154.74L8.39999 156.41L53.88 156.41L53.88 155.89Z" clip-rule="evenodd" fill="#6D6D6D" fill-opacity="1.000000" fill-rule="evenodd"/>
</svg>
