<svg viewBox="0 0 104.324 124.3" xmlns="http://www.w3.org/2000/svg">
	<path class="service-tile__icon-base" d="M50.84 73.87C50.72 73.78 50.6 73.69 50.5 73.57C50.41 73.47 50.34 73.34 50.26 73.23C50.19 73.1 50.13 72.99 50.08 72.85C50.02 72.7 50.01 72.56 49.99 72.4C49.98 72.31 49.94 72.23 49.94 72.13L49.94 33.4C40.9 33.91 32.7 37.51 26.35 43.18L27.84 44.67C28.7 45.53 28.7 46.93 27.84 47.8C27.4 48.24 26.84 48.45 26.26 48.45C25.68 48.45 25.13 48.24 24.69 47.8L23.21 46.32C17.54 52.67 13.94 60.87 13.42 69.9L15.53 69.9C16.75 69.9 17.75 70.9 17.75 72.12C17.75 73.35 16.75 74.35 15.53 74.35L13.42 74.35C13.94 83.38 17.54 91.58 23.21 97.93L24.69 96.45C25.55 95.58 26.96 95.58 27.83 96.45C28.69 97.31 28.69 98.71 27.83 99.58L26.34 101.07C32.7 106.74 40.9 110.34 49.93 110.85L49.93 108.75C49.93 107.52 50.92 106.52 52.15 106.52C53.37 106.52 54.37 107.52 54.37 108.75L54.37 110.85C67 110.13 78.02 103.39 84.59 93.42L51.04 74.04C50.96 73.99 50.9 73.92 50.83 73.86L50.84 73.87Z" fill="currentColor" fill-rule="nonzero"/>
	<path class="service-tile__icon-accent" d="M54.38 33.41L54.38 70.85L86.81 89.58C89.47 84.33 91 78.41 91 72.13C91 51.46 74.75 34.56 54.38 33.4L54.38 33.41Z" fill="currentColor" fill-rule="nonzero"/>
	<path class="service-tile__icon-base" d="M94.1 41.17L97.67 37.61C98.51 36.77 98.97 35.66 98.97 34.47C98.97 33.29 98.51 32.17 97.67 31.34L92.96 26.63C91.23 24.89 88.41 24.89 86.69 26.63L83.12 30.19C76.43 25.24 68.52 21.85 59.92 20.56L59.92 15.54L61.03 15.54C63.48 15.54 65.48 13.55 65.48 11.09L65.48 4.44C65.48 1.99 63.49 0 61.03 0L43.28 0C40.84 0 38.84 1.99 38.84 4.44L38.84 11.09C38.84 13.54 40.83 15.54 43.28 15.54L44.39 15.54L44.39 20.56C35.8 21.85 27.89 25.24 21.2 30.19L17.63 26.63C15.9 24.89 13.08 24.89 11.36 26.63L6.65 31.34C5.82 32.17 5.35 33.29 5.35 34.47C5.35 35.66 5.82 36.77 6.65 37.61L10.21 41.17C3.8 49.84 0 60.55 0 72.13C0 100.89 23.39 124.3 52.16 124.3C80.92 124.3 104.32 100.9 104.32 72.13C104.32 60.55 100.52 49.84 94.1 41.17ZM89.64 93.77C89.56 93.9 89.47 94.01 89.36 94.12C81.82 106.83 67.98 115.41 52.16 115.41C40.27 115.41 29.49 110.58 21.66 102.8C21.62 102.77 21.58 102.76 21.55 102.73C21.53 102.69 21.51 102.66 21.48 102.62C13.7 94.79 8.87 84.01 8.87 72.12C8.87 60.23 13.7 49.46 21.48 41.63C21.51 41.59 21.52 41.55 21.55 41.52C21.59 41.48 21.63 41.48 21.66 41.45C29.49 33.66 40.27 28.84 52.16 28.84C76.03 28.84 95.44 48.26 95.44 72.12C95.44 79.92 93.34 87.22 89.72 93.55C89.68 93.62 89.68 93.69 89.65 93.76L89.64 93.77Z" fill="currentColor" fill-rule="nonzero"/>
</svg>
