<svg width="100.181213" height="170.000000" viewBox="0 0 100.181 170" fill="none" xmlns="http://www.w3.org/2000/svg" xmlns:xlink="http://www.w3.org/1999/xlink">
	<desc>
			Created with Pixso.
	</desc>
	<defs/>
	<path id="Vector" d="M92.19 159L94.07 170L84.21 164.81L74.34 170L76.22 159L68.23 151.22L79.27 149.62L84.21 139.62L89.14 149.62L100.18 151.22L92.19 159Z" fill="#EE364A" fill-opacity="1.000000" fill-rule="nonzero"/>
	<path id="Vector" d="M55.02 147.53C54.28 150.2 53.88 153 53.88 155.89C53.88 156.06 53.88 156.24 53.88 156.41L8.39 156.41L8.39 154.74C8.39 150.75 11.62 147.53 15.58 147.53L55.02 147.53ZM67.4 109.27C70.11 109.27 72.31 111.47 72.31 114.19L72.31 128.47C65.21 131.5 59.48 137.13 56.3 144.14L23.03 144.14C20.32 144.14 18.12 141.95 18.12 139.23L18.12 114.19C18.12 111.47 20.32 109.27 23.03 109.27L67.41 109.27L67.4 109.27ZM73.79 0C75.1 0 76.17 1.06 76.17 2.37L76.17 4.75L88.06 4.75C89.38 4.75 90.44 5.83 90.44 7.14L90.44 31C90.41 43.23 84.18 54.6 73.9 61.18L73.9 61.25C74.3 67.37 79.58 71.99 85.68 71.58C87 71.58 88.06 72.66 88.06 73.96C88.06 75.25 87.01 76.33 85.68 76.33C78.11 76.79 71.33 71.68 69.66 64.25C66.47 68.41 62.29 71.68 57.5 73.79C58.61 74.93 59.3 76.41 59.47 77.99C59.89 81.87 57.07 85.39 53.17 85.81L58.91 104.98L31.57 104.98L37.31 85.81C35.73 85.64 34.25 84.95 33.12 83.85C30.31 81.1 30.23 76.6 32.96 73.79C28.17 71.68 23.98 68.41 20.8 64.25C19.12 71.68 12.35 76.79 4.78 76.33C3.47 76.33 2.39 75.27 2.39 73.96C2.39 72.64 3.47 71.58 4.78 71.58C10.88 71.96 16.14 67.29 16.56 61.18C6.25 54.62 0.04 43.25 0 31.02L0 7.14C0 5.83 1.07 4.77 2.38 4.77L14.29 4.77L14.29 2.39C14.29 1.08 15.34 0 16.67 0L73.79 0L73.79 0ZM4.75 31.02C4.76 40.14 8.78 48.77 15.72 54.68C14.76 51.66 14.27 48.5 14.27 45.33L14.27 9.54L4.75 9.54L4.75 31.04L4.75 31.02ZM76.16 45.33L76.16 45.91C76.1 48.87 75.62 51.83 74.71 54.66C81.64 48.77 85.66 40.12 85.67 31L85.67 9.54L76.16 9.54L76.16 45.33L76.16 45.33Z" fill="#8C8C8C" fill-opacity="1.000000" fill-rule="nonzero"/>
</svg>
