<svg viewBox="0 0 180 98" xmlns="http://www.w3.org/2000/svg">
	<path d="M58.92 13.69C59.83 14.05 60.64 14.55 61.4 15.17C62 15.71 62.56 16.42 63.1 17.31C63.62 18.2 63.89 19.31 63.89 20.66C63.89 21.81 63.66 22.86 63.23 23.82C62.8 24.8 62.18 25.65 61.36 26.39C60.56 27.12 59.56 27.7 58.38 28.13C57.21 28.54 55.89 28.75 54.43 28.75L40.47 28.75L40.47 0.44L53.52 0.44C55 0.44 56.3 0.63 57.43 1.02C58.58 1.4 59.53 1.94 60.32 2.61C61.09 3.27 61.7 4.06 62.12 4.97C62.53 5.87 62.74 6.82 62.74 7.84C62.74 8.87 62.53 9.79 62.13 10.52C61.73 11.24 61.28 11.85 60.81 12.34C60.27 12.87 59.63 13.33 58.92 13.69ZM48.35 11.45L51.95 11.45C52.72 11.45 53.37 11.21 53.88 10.74C54.39 10.26 54.64 9.67 54.64 8.99C54.64 8.3 54.39 7.71 53.88 7.24C53.37 6.76 52.72 6.52 51.95 6.52L48.35 6.52L48.35 11.46L48.35 11.45ZM52.63 22.68C53.54 22.68 54.28 22.38 54.88 21.81C55.47 21.23 55.78 20.54 55.78 19.76C55.78 18.97 55.49 18.3 54.88 17.71C54.28 17.13 53.52 16.84 52.63 16.84L48.35 16.84L48.35 22.68L52.63 22.68Z" class="service-tile__icon-base" fill="currentColor" fill-rule="nonzero"/>
	<path d="M95.15 14.59C95.15 16.66 94.78 18.59 94.05 20.37C93.32 22.15 92.3 23.69 90.99 25C89.68 26.3 88.15 27.33 86.39 28.07C84.64 28.81 82.75 29.19 80.74 29.19C78.74 29.19 76.82 28.82 75.08 28.07C73.34 27.33 71.82 26.29 70.52 25C69.21 23.69 68.2 22.15 67.45 20.37C66.73 18.59 66.35 16.66 66.35 14.59C66.35 12.53 66.73 10.6 67.45 8.82C68.18 7.04 69.21 5.5 70.52 4.19C71.82 2.89 73.34 1.86 75.08 1.12C76.82 0.38 78.71 0 80.74 0C82.78 0 84.64 0.37 86.39 1.12C88.15 1.86 89.68 2.9 90.99 4.19C92.3 5.5 93.31 7.04 94.05 8.82C94.78 10.6 95.15 12.53 95.15 14.59ZM74.22 14.59C74.22 15.62 74.4 16.55 74.74 17.4C75.08 18.26 75.56 18.99 76.14 19.6C76.72 20.2 77.41 20.69 78.2 21.03C78.99 21.38 79.84 21.55 80.74 21.55C81.65 21.55 82.5 21.38 83.29 21.03C84.08 20.69 84.77 20.22 85.35 19.6C85.93 18.99 86.41 18.25 86.75 17.4C87.09 16.54 87.27 15.6 87.27 14.59C87.27 13.59 87.09 12.64 86.75 11.79C86.41 10.93 85.93 10.2 85.35 9.59C84.77 8.99 84.08 8.5 83.29 8.16C82.48 7.81 81.65 7.64 80.74 7.64C79.84 7.64 78.99 7.81 78.2 8.16C77.4 8.5 76.72 8.97 76.14 9.59C75.56 10.2 75.08 10.94 74.74 11.79C74.4 12.65 74.22 13.59 74.22 14.59Z" class="service-tile__icon-base" fill="currentColor" fill-rule="nonzero"/>
	<path d="M110.91 0.44C112.47 0.44 113.9 0.69 115.21 1.2C116.52 1.7 117.63 2.41 118.57 3.3C119.5 4.21 120.22 5.26 120.72 6.49C121.23 7.73 121.48 9.08 121.48 10.53C121.48 11.98 121.23 13.35 120.72 14.57C120.22 15.8 119.49 16.85 118.57 17.76C117.63 18.66 116.52 19.36 115.21 19.86C113.9 20.37 112.47 20.62 110.91 20.62L106.87 20.62L106.87 28.71L98.99 28.71L98.99 0.44L110.91 0.44ZM110.24 13.47C111.15 13.47 111.89 13.17 112.49 12.59C113.08 12.01 113.39 11.33 113.39 10.54C113.39 9.76 113.1 9.09 112.49 8.5C111.89 7.92 111.13 7.62 110.24 7.62L106.87 7.62L106.87 13.47L110.24 13.47Z" class="service-tile__icon-base" fill="currentColor" fill-rule="nonzero"/>
	<path d="M140.84 28.75L132.96 16.39L132.96 28.75L125.08 28.75L125.08 0.44L132.96 0.44L132.96 12.43L140.17 0.44L148.94 0.44L139.94 14.37L149.85 28.75L140.85 28.75L140.84 28.75Z" class="service-tile__icon-base" fill="currentColor" fill-rule="nonzero"/>
	<path d="M49.61 45.84L58.3 45.84C58 45.1 57.58 44.42 57.03 43.82C56.56 43.32 55.92 42.84 55.14 42.43C54.37 42.01 53.39 41.81 52.22 41.81C51.25 41.81 50.43 41.98 49.73 42.34C49.05 42.7 48.48 43.08 48.07 43.51C47.56 44.02 47.13 44.58 46.8 45.17L38.72 44.49C38.98 43.32 39.52 42.13 40.31 40.92C41.09 39.7 42.09 38.62 43.28 37.67C44.47 36.7 45.82 35.92 47.32 35.31C48.84 34.7 50.46 34.39 52.2 34.39C54.21 34.39 56.1 34.76 57.85 35.52C59.6 36.26 61.14 37.3 62.44 38.59C63.75 39.89 64.76 41.44 65.51 43.22C66.23 45 66.61 46.93 66.61 48.99C66.61 51.05 66.23 52.98 65.51 54.76C64.78 56.54 63.75 58.08 62.44 59.39C61.14 60.69 59.6 61.72 57.85 62.46C56.1 63.2 54.21 63.59 52.2 63.59C50.46 63.59 48.83 63.28 47.32 62.67C45.81 62.06 44.45 61.27 43.28 60.34C42.09 59.39 41.11 58.33 40.31 57.18C39.5 56.01 38.97 54.86 38.67 53.72L46.82 53.05C47.15 53.65 47.56 54.18 48.08 54.63C48.5 55.04 49.06 55.41 49.75 55.72C50.43 56.04 51.26 56.2 52.23 56.2C53.4 56.2 54.39 55.99 55.17 55.58C55.96 55.16 56.6 54.68 57.06 54.18C57.52 53.68 57.94 52.99 58.3 52.16L49.61 52.16L49.61 45.87L49.61 45.84Z" class="service-tile__icon-accent" fill="currentColor" fill-rule="nonzero"/>
	<path d="M95.88 34.85L95.88 63.14L88 63.14L88 52.59L78.32 52.59L78.32 63.14L70.44 63.14L70.44 34.85L78.32 34.85L78.32 44.95L88 44.95L88 34.85L95.88 34.85Z" class="service-tile__icon-accent" fill="currentColor" fill-rule="nonzero"/>
	<path d="M128.05 55.5L128.05 68.31L120.17 68.31L120.17 63.14L106.21 63.14L106.21 68.31L98.33 68.31L98.33 55.5L100.13 55.5C100.52 55.29 100.87 55.01 101.22 54.64C101.51 54.31 101.8 53.9 102.05 53.38C102.3 52.87 102.5 52.22 102.61 51.45L104.64 34.83L124.88 34.83L124.88 55.5L128.04 55.5L128.05 55.5ZM117.02 42.47L111.16 42.47L110.03 51.47C109.91 52.24 109.75 52.89 109.54 53.39C109.33 53.9 109.11 54.33 108.87 54.66C108.61 55.01 108.32 55.29 108.01 55.52L117.02 55.52L117.02 42.49L117.02 42.47Z" class="service-tile__icon-accent" fill="currentColor" fill-rule="nonzero"/>
	<path d="M53.75 90.35C54.77 90.35 55.62 90.16 56.32 89.79C57 89.42 57.57 89 57.98 88.56C58.49 88.02 58.89 87.42 59.16 86.76L67.26 87.43C66.99 88.72 66.46 90 65.67 91.24C64.87 92.51 63.89 93.63 62.7 94.64C61.51 95.65 60.15 96.45 58.65 97.08C57.14 97.68 55.52 98 53.78 98C51.74 98 49.85 97.62 48.11 96.87C46.37 96.13 44.86 95.09 43.55 93.8C42.24 92.49 41.23 90.95 40.49 89.17C39.76 87.39 39.39 85.46 39.39 83.39C39.39 81.33 39.76 79.4 40.49 77.62C41.21 75.84 42.24 74.3 43.55 72.99C44.86 71.69 46.37 70.66 48.11 69.92C49.85 69.18 51.74 68.8 53.78 68.8C55.52 68.8 57.15 69.11 58.65 69.72C60.17 70.32 61.52 71.14 62.7 72.15C63.89 73.16 64.87 74.29 65.67 75.55C66.46 76.81 66.99 78.08 67.26 79.36L59.16 80.03C58.89 79.37 58.5 78.77 57.98 78.23C57.57 77.79 57 77.37 56.32 77C55.64 76.63 54.77 76.44 53.75 76.44C52.84 76.44 51.99 76.61 51.21 76.96C50.4 77.3 49.72 77.77 49.14 78.39C48.56 79 48.08 79.75 47.74 80.59C47.4 81.45 47.22 82.39 47.22 83.39C47.22 84.4 47.4 85.35 47.74 86.2C48.08 87.06 48.56 87.79 49.14 88.4C49.72 89 50.42 89.49 51.21 89.83C51.99 90.18 52.84 90.35 53.75 90.35Z" class="service-tile__icon-base" fill="currentColor" fill-rule="nonzero"/>
	<path d="M96.06 69.24L96.06 97.53L88.18 97.53L88.18 76.87L78.5 76.87L78.5 97.53L70.62 97.53L70.62 69.24L96.06 69.24Z" class="service-tile__icon-base" fill="currentColor" fill-rule="nonzero"/>
	<path d="M128.69 83.39C128.69 85.46 128.32 87.39 127.59 89.17C126.86 90.95 125.84 92.49 124.53 93.8C123.22 95.1 121.69 96.13 119.93 96.87C118.18 97.61 116.29 98 114.28 98C112.28 98 110.36 97.62 108.62 96.87C106.88 96.13 105.36 95.09 104.06 93.8C102.75 92.49 101.74 90.95 100.99 89.17C100.26 87.39 99.89 85.46 99.89 83.39C99.89 81.33 100.26 79.4 100.99 77.62C101.72 75.84 102.75 74.3 104.06 72.99C105.36 71.69 106.88 70.66 108.62 69.92C110.36 69.18 112.25 68.8 114.28 68.8C116.32 68.8 118.18 69.17 119.93 69.92C121.69 70.66 123.22 71.7 124.53 72.99C125.84 74.3 126.85 75.84 127.59 77.62C128.32 79.4 128.69 81.33 128.69 83.39ZM107.76 83.39C107.76 84.42 107.94 85.35 108.28 86.2C108.62 87.06 109.1 87.79 109.68 88.4C110.26 89 110.95 89.49 111.74 89.83C112.53 90.18 113.38 90.35 114.28 90.35C115.19 90.35 116.04 90.18 116.83 89.83C117.61 89.49 118.31 89.02 118.89 88.4C119.47 87.79 119.95 87.05 120.29 86.2C120.63 85.34 120.81 84.4 120.81 83.39C120.81 82.39 120.63 81.44 120.29 80.59C119.95 79.73 119.47 79 118.89 78.39C118.31 77.79 117.61 77.3 116.83 76.96C116.02 76.61 115.19 76.44 114.28 76.44C113.38 76.44 112.53 76.61 111.74 76.96C110.94 77.3 110.26 77.77 109.68 78.39C109.1 79 108.62 79.75 108.28 80.59C107.94 81.45 107.76 82.39 107.76 83.39Z" class="service-tile__icon-base" fill="currentColor" fill-rule="nonzero"/>
	<path d="M144.45 69.24C146.01 69.24 147.44 69.49 148.75 70C150.05 70.5 151.17 71.21 152.11 72.1C153.04 73.01 153.75 74.06 154.26 75.29C154.77 76.53 155.02 77.88 155.02 79.33C155.02 80.78 154.77 82.15 154.26 83.37C153.75 84.6 153.03 85.65 152.11 86.56C151.17 87.46 150.05 88.16 148.75 88.66C147.44 89.17 146.01 89.42 144.45 89.42L140.41 89.42L140.41 97.51L132.53 97.51L132.53 69.21L144.45 69.21L144.45 69.24ZM143.78 82.27C144.69 82.27 145.43 81.97 146.03 81.39C146.62 80.81 146.93 80.13 146.93 79.34C146.93 78.56 146.63 77.89 146.03 77.3C145.43 76.72 144.67 76.42 143.78 76.42L140.41 76.42L140.41 82.27L143.78 82.27Z" class="service-tile__icon-base" fill="currentColor" fill-rule="nonzero"/>
	<path d="M172.35 97.54L164.47 97.54L164.47 76.87L156.82 76.87L156.82 69.23L180 69.23L180 76.87L172.34 76.87L172.34 97.54L172.35 97.54Z" class="service-tile__icon-base" fill="currentColor" fill-rule="nonzero"/>
	<rect width="29.853035" height="98.000000" fill="#EE364A"/>
	<path d="M17.18 17.14L11.81 18.93L17.18 20.72L17.18 17.14ZM20.38 21.74L23.45 22.76L23.45 26.6L7.33 20.85L7.33 17.01L23.45 11.26L23.45 15.09L20.38 16.12L20.38 21.74Z" fill="#FFFFFF" fill-rule="nonzero"/>
	<path d="M7.33 40.03L7.33 29.55L10.91 29.55L10.91 36.32L23.45 36.32L23.45 40.03L7.33 40.03Z" fill="#FFFFFF" fill-rule="nonzero"/>
	<path d="M7.33 56.79L16.93 56.79L7.33 50.27L7.33 46.94L23.45 46.94L23.45 50.65L13.86 50.65L23.45 57.17L23.45 60.49L7.33 60.49L7.33 56.79Z" fill="#FFFFFF" fill-rule="nonzero"/>
	<path d="M7.33 67.38L23.45 67.38L23.45 71.09L10.91 71.09L10.91 75.44L18.59 76.08C20.19 76.21 21.43 76.7 22.3 77.53C23.15 78.37 23.58 79.46 23.58 80.81C23.58 81.01 23.57 81.21 23.55 81.39C23.55 81.58 23.54 81.74 23.53 81.88C23.51 82.05 23.49 82.2 23.45 82.34L20.25 82.34L20.25 81.83C20.25 81.25 20.04 80.76 19.61 80.37C19.19 79.96 18.59 79.72 17.82 79.65L7.33 78.76L7.33 67.38Z" fill="#FFFFFF" fill-rule="nonzero"/>
</svg>
