<svg viewBox="0 0 155.639 154" fill="none" xmlns="http://www.w3.org/2000/svg">
	<path d="M18.17 70.68L29.33 63.96L29.33 9.97L0 39.88L18.17 70.68Z" class="service-tile__icon-accent" fill="currentColor" fill-rule="nonzero"/>
	<path d="M126.05 10.48L126.05 63.71L136.82 70.68L155.63 40.13L126.05 10.48Z" class="service-tile__icon-accent" fill="currentColor" fill-rule="nonzero"/>
	<path d="M102.78 2.08L98.66 0.82L95.95 0L94.54 1L82.4 9.64L78.28 12.57L77.79 12.91L74.16 10.18L62.57 1.45L60.64 0L58.45 0.57L54.33 1.65L35.32 6.66L35.32 122.6L97.02 122.6C97.94 117.59 99.94 112.98 102.78 108.98L102.78 10.7L112.01 13.52L112.01 100.09C114.54 98.42 117.31 97.08 120.25 96.13L120.25 7.42L102.78 2.08ZM54.33 114.36L43.56 114.36L43.56 13L54.33 10.18L54.33 114.36ZM74.16 114.36L62.57 114.36L62.57 11.76L72.83 19.5L74.16 20.49L74.16 114.36ZM94.54 114.36L82.4 114.36L82.4 19.74L82.57 19.62L94.54 11.11L94.54 114.36Z" class="service-tile__icon-base" fill="currentColor" fill-rule="nonzero"/>
	<path d="M143.86 126.75L123.93 153.69C123.75 153.93 123.44 154.04 123.14 153.98C122.72 153.89 122.46 153.48 122.54 153.05L127.34 133.2C127.34 133.14 127.35 133.08 127.35 133.02C127.35 132.59 127.01 132.23 126.58 132.23L118.61 132.23C118.45 132.23 118.28 132.2 118.14 132.11C117.78 131.86 117.69 131.37 117.92 131.02L137.86 104.1C138.05 103.86 138.35 103.75 138.64 103.81C139.06 103.9 139.34 104.31 139.25 104.73L134.51 124.57C134.5 124.64 134.5 124.69 134.5 124.75C134.5 125.18 134.84 125.53 135.27 125.53L143.24 125.53C143.39 125.54 143.53 125.59 143.65 125.67C144.01 125.91 144.11 126.39 143.86 126.75Z" class="service-tile__icon-accent" fill="currentColor" fill-rule="nonzero"/>
	<path d="M143.86 126.75L123.93 153.69C123.75 153.93 123.44 154.04 123.14 153.98C122.72 153.89 122.46 153.48 122.54 153.05L127.34 133.2C127.34 133.14 127.35 133.08 127.35 133.02C127.35 132.59 127.01 132.23 126.58 132.23L118.61 132.23C118.45 132.23 118.28 132.2 118.14 132.11C117.78 131.86 117.69 131.37 117.92 131.02L137.86 104.1C138.05 103.86 138.35 103.75 138.64 103.81C139.06 103.9 139.34 104.31 139.25 104.73L134.51 124.57C134.5 124.64 134.5 124.69 134.5 124.75C134.5 125.18 134.84 125.53 135.27 125.53L143.24 125.53C143.39 125.54 143.53 125.59 143.65 125.67C144.01 125.91 144.11 126.39 143.86 126.75Z" class="service-tile__icon-accent" fill="currentColor" fill-rule="nonzero"/>
</svg>
