<svg viewBox="0 0 153.94 157.3" xmlns="http://www.w3.org/2000/svg">
	<path class="service-tile__icon-base" d="M153.94 128.63C153.78 124.99 153.94 121.35 153.47 117.7C151.08 104.07 140.64 93.94 126.7 92.05C122.26 91.42 117.67 91.42 113.07 90.93C105.47 89.98 98.82 86.82 93.91 80.63C89 74.45 86.46 67.16 84.25 59.73C83.13 56.09 80.77 53.86 77.27 53.71C73.95 53.55 71.25 55.76 70.14 59.41C68.87 63.22 67.6 67.18 66.03 70.97C63.02 78.25 58.42 84.44 51.13 88.08C46.54 90.29 41.78 91.25 36.72 91.4C33.55 91.56 30.38 91.56 27.22 92.19C12.49 94.57 2.03 105.03 0.45 119.44C-0.34 125.78 0.13 132.27 0.13 138.6C0.13 142.41 2.99 145.25 6.94 145.58C10.42 145.74 13.75 143.04 14.22 139.4C14.37 137.98 14.37 136.39 14.37 134.97L14.37 123.88C14.37 123.25 14.53 122.3 15.33 122.14C15.96 122.14 16.44 122.92 16.6 123.57C16.76 124.04 16.76 124.68 16.76 125.15L16.76 153.34C16.76 156.35 17.71 157.3 20.71 157.3L51.76 157.3C54.92 157.3 55.71 156.34 55.71 153.34L55.71 103.76C55.71 102.02 56.18 101.06 57.76 100.44C63.47 97.58 68.22 93.63 72.02 88.39C73.76 86.01 75.34 83.48 77.24 80.79C77.55 81.26 77.71 81.57 77.87 81.9C82.3 89.98 88.48 96.47 96.87 100.59C98.14 101.22 98.3 102.18 98.3 103.45L98.3 153.5C98.3 156.35 99.08 157.14 101.94 157.14L133.3 157.14C136.31 157.14 137.25 156.35 137.25 153.19L137.25 123.88C137.25 123.25 137.56 122.14 138.36 122.14C139.32 122.14 139.63 123.1 139.79 123.88C139.95 124.35 139.95 124.99 139.95 125.62L139.95 138.45C139.95 142.73 142.8 145.58 146.75 145.58C150.71 145.58 153.89 142.73 153.89 138.45C153.89 135.11 153.89 131.78 153.89 128.62L153.94 128.63Z" fill="#8C8C8C" fill-rule="nonzero"/>
	<path class="service-tile__icon-base" d="M34.98 86.5C44.01 86.5 51.44 79.05 51.44 70.33C51.44 60.67 44.31 53.38 34.65 53.38C24.99 53.38 18.18 60.83 18.18 70.01C18.18 79.2 25.79 86.5 34.98 86.5Z" fill="#8C8C8C" fill-rule="nonzero"/>
	<path class="service-tile__icon-base" d="M119.09 86.49C128.44 86.49 135.73 79.22 135.73 70.03C135.57 60.84 128.45 53.55 119.42 53.55C110.39 53.55 102.78 60.82 102.63 69.86C102.63 78.89 110.08 86.49 119.09 86.49Z" fill="#8C8C8C" fill-rule="nonzero"/>
	<path class="service-tile__icon-base" d="M77.11 48.95C78.07 48.95 78.7 48.33 78.7 47.37L78.7 40.08C78.7 39.12 78.07 38.5 77.11 38.5C76.16 38.5 75.53 39.12 75.53 40.08L75.53 47.35C75.53 48.31 76.17 48.94 77.11 48.94L77.11 48.95Z" fill="#8C8C8C" fill-rule="nonzero"/>
	<path class="service-tile__icon-base" d="M86.46 53.39C86.77 53.39 87.24 53.24 87.57 53.08L93.59 47.86C94.22 47.23 94.38 46.27 93.75 45.65C93.12 45.02 92.17 44.86 91.54 45.49L85.52 50.71C84.89 51.34 84.73 52.29 85.36 52.92C85.68 53.24 85.99 53.39 86.48 53.39L86.46 53.39Z" fill="#8C8C8C" fill-rule="nonzero"/>
	<path class="service-tile__icon-base" d="M66.5 52.92C66.81 53.24 67.12 53.24 67.61 53.24C68.1 53.24 68.57 53.08 68.88 52.76C69.51 52.14 69.35 51.18 68.72 50.55L62.7 45.33C62.08 44.7 61.12 44.86 60.49 45.49C59.86 46.12 60.02 47.07 60.65 47.7L66.51 52.92L66.5 52.92Z" fill="#8C8C8C" fill-rule="nonzero"/>
	<path class="service-tile__icon-base" d="M82.96 14.96L84.41 23.44L76.8 19.43L69.18 23.44L70.63 14.96L64.47 8.95L72.99 7.71L76.8 0L80.6 7.71L89.12 8.95L82.96 14.96Z" fill="#EE364A" fill-rule="nonzero"/>
	<path class="service-tile__icon-base" d="M82.96 14.96L84.41 23.44L76.8 19.43L69.18 23.44L70.63 14.96L64.47 8.95L72.99 7.71L76.8 0L80.6 7.71L89.12 8.95L82.96 14.96Z" fill="#EE364A" fill-rule="nonzero"/>
	<path class="service-tile__icon-accent" d="M123.28 17.86L124.23 23.44L119.23 20.81L114.22 23.44L115.17 17.86L111.12 13.92L116.72 13.1L119.23 8.03L121.73 13.1L127.32 13.92L123.28 17.86Z" fill="#EE364A" fill-rule="nonzero"/>
	<path class="service-tile__icon-accent" d="M123.28 17.86L124.23 23.44L119.23 20.81L114.22 23.44L115.17 17.86L111.12 13.92L116.72 13.1L119.23 8.03L121.73 13.1L127.32 13.92L123.28 17.86Z" fill="#EE364A" fill-rule="nonzero"/>
	<path class="service-tile__icon-accent" d="M38.42 17.86L39.38 23.44L34.37 20.81L29.37 23.44L30.32 17.86L26.27 13.92L31.87 13.1L34.37 8.03L36.87 13.1L42.47 13.92L38.42 17.86Z" fill="#EE364A" fill-rule="nonzero"/>
	<path class="service-tile__icon-accent" d="M38.42 17.86L39.38 23.44L34.37 20.81L29.37 23.44L30.32 17.86L26.27 13.92L31.87 13.1L34.37 8.03L36.87 13.1L42.47 13.92L38.42 17.86Z" fill="#EE364A" fill-rule="nonzero"/>
</svg>
