<svg viewBox="0 0 179.593 171.6" xmlns="http://www.w3.org/2000/svg">
	<path d="M178.42 156.88C177.81 157.16 177.18 157.44 176.53 157.7C173.89 158.77 170.83 159.76 167.37 160.4C166.94 160.48 166.49 160.55 166.06 160.62C165.62 160.7 165.17 160.76 164.7 160.81C162.78 161.06 160.77 161.2 158.66 161.18C158.53 161.18 158.41 161.18 158.28 161.18C158.03 161.18 157.79 161.18 157.55 161.18C151.16 160.95 144.78 159.32 139.04 156.45L137.62 144.61L127.57 144.61C127.08 148.63 126.61 152.65 126.12 156.67C121.28 158.97 114.45 161.22 106.24 161.22C105.74 161.22 105.23 161.22 104.72 161.19C98.53 160.97 92.32 159.41 86.72 156.7L89.91 126.86L92.3 104.45C93.17 104.64 94.03 104.81 94.91 104.99C95.6 105.13 96.27 105.26 96.96 105.39C97.53 105.5 98.1 105.61 98.68 105.71C99.36 105.83 100.03 105.95 100.7 106.07C101.21 106.15 101.72 106.24 102.22 106.31C103.04 106.44 103.88 106.57 104.71 106.7C105.65 106.83 106.59 106.97 107.53 107.1C109.67 107.38 111.79 107.63 113.95 107.82C114.89 107.91 115.82 108.01 116.76 108.08C119.19 108.29 121.64 108.44 124.08 108.55C124.32 108.55 124.56 108.57 124.8 108.58C125.64 108.62 126.48 108.65 127.32 108.66C128.2 108.69 129.08 108.71 129.96 108.72C130.76 108.72 131.56 108.74 132.36 108.74L132.57 108.74C146.11 108.74 159.67 107.29 172.92 104.44C174.75 121.01 176.56 140.33 178.39 156.93L178.42 156.88Z" fill="currentColor" class="service-tile__icon-base" fill-rule="nonzero"/>
	<path d="M172.43 99.71C159.37 102.56 145.97 104.01 132.61 104.01L132.41 104.01C127.18 104.01 121.93 103.77 116.72 103.32C108.68 102.64 100.69 101.44 92.81 99.72L93.32 94.85C99.93 96.34 107.78 97.71 116.67 98.51C121.61 98.94 126.87 99.21 132.42 99.22L132.6 99.22C136.51 99.22 140.26 99.1 143.88 98.86C145.68 98.75 147.42 98.62 149.13 98.46C150.87 98.29 152.57 98.11 154.23 97.91C155.86 97.7 157.46 97.49 159 97.25C163.69 96.56 168 95.73 171.87 94.85C172.06 96.43 172.25 98.05 172.43 99.71Z" fill="currentColor" class="service-tile__icon-accent" fill-rule="nonzero"/>
	<path d="M125.48 162.05L124.93 166.66C124.64 166.82 124.3 166.97 123.95 167.13C123.78 167.21 123.6 167.29 123.41 167.37C123.21 167.45 123.02 167.54 122.83 167.62C122.63 167.7 122.44 167.8 122.22 167.88C121.59 168.14 120.9 168.41 120.16 168.67C119.81 168.8 119.44 168.92 119.06 169.06C118.68 169.18 118.28 169.3 117.88 169.42C117.57 169.51 117.26 169.6 116.95 169.69C116.85 169.72 116.74 169.75 116.64 169.77C116.37 169.84 116.09 169.91 115.82 169.98C115.42 170.07 115.04 170.17 114.62 170.25C114.17 170.34 113.72 170.44 113.24 170.52L113.22 170.52C112.74 170.62 112.26 170.7 111.77 170.77C111.77 170.77 111.75 170.77 111.74 170.77C111.25 170.85 110.74 170.91 110.24 170.97C109.2 171.08 108.11 171.17 106.98 171.21C106.43 171.23 105.87 171.24 105.31 171.24L105.28 171.24C105.07 171.24 104.86 171.24 104.65 171.24C95.83 171.12 89.14 168.38 85.64 166.65L86.19 161.6C91.97 164.16 98.26 165.61 104.54 165.84C105.13 165.86 105.7 165.87 106.27 165.87C113.9 165.87 120.42 164.12 125.46 162.05L125.48 162.05Z" fill="currentColor" class="service-tile__icon-accent" fill-rule="nonzero"/>
	<path d="M179.53 166.66C179.41 166.74 179.28 166.8 179.12 166.88C178.99 166.95 178.85 167.02 178.7 167.1C178.4 167.24 178.07 167.4 177.73 167.56C177.46 167.68 177.17 167.82 176.86 167.96C176.61 168.07 176.33 168.19 176.07 168.3C175.8 168.41 175.52 168.54 175.21 168.66C174.59 168.9 173.92 169.15 173.21 169.38C172.82 169.51 172.41 169.64 172 169.78C171.59 169.9 171.15 170.02 170.72 170.15C170.27 170.26 169.83 170.38 169.35 170.49C168.89 170.6 168.42 170.71 167.94 170.8C167.45 170.9 166.96 170.99 166.45 171.07C165.95 171.15 165.43 171.22 164.92 171.29C164.39 171.36 163.86 171.4 163.31 171.45C162.76 171.5 162.21 171.54 161.64 171.56C161.09 171.59 160.5 171.6 159.92 171.6C159.24 171.6 158.55 171.58 157.83 171.54C149.77 171.13 143.67 168.45 140.32 166.67L139.75 161.88C145.36 164.27 151.41 165.64 157.46 165.85C158.03 165.87 158.62 165.88 159.19 165.88C167.13 165.88 173.89 163.98 179.02 161.79C179.21 163.46 179.41 165.09 179.59 166.67L179.53 166.66Z" fill="currentColor" class="service-tile__icon-accent" fill-rule="nonzero"/>
	<path d="M100.4 0.01C99.46 3.54 98.15 6.61 96.59 9.37L116.07 15.11L116.09 4.24L100.41 0L100.4 0.01Z" fill="currentColor" class="service-tile__icon-base" fill-rule="nonzero"/>
	<path d="M49.55 0.01C50.49 3.54 51.79 6.61 53.36 9.37L33.88 15.11L33.86 4.24L49.54 0L49.55 0.01Z" fill="currentColor" class="service-tile__icon-base" fill-rule="nonzero"/>
	<path d="M54.72 31.13L48.44 39.56L60.66 39.23L54.71 31.13L54.72 31.13Z" fill="currentColor" class="service-tile__icon-base" fill-rule="nonzero"/>
	<path d="M7.27 25.9L24.98 48.18L30.75 44.81L30.67 6.42L7.27 25.89L7.27 25.9Z" fill="currentColor" class="service-tile__icon-base" fill-rule="nonzero"/>
	<path d="M0 31.96L17.57 52.51L22.19 49.82L4.8 27.96L0 31.96Z" fill="currentColor" class="service-tile__icon-accent" fill-rule="nonzero"/>
	<path d="M60.48 12.83C64.56 16.38 69.81 18.33 75.22 18.33C84.93 18.33 93.72 11.34 97.23 1.27C88.13 6 75.69 10.01 63.05 6.49C59.65 5.56 56.42 4.11 53.46 2.18C54.81 6.28 57.23 9.96 60.47 12.83L60.48 12.83Z" fill="currentColor" class="service-tile__icon-base" fill-rule="nonzero"/>
	<path d="M118.92 6.32C119.06 17.27 119.2 30.88 119.33 44.97L125.4 48.5L143.95 27.07L118.92 6.32Z" fill="currentColor" class="service-tile__icon-base" fill-rule="nonzero"/>
	<path d="M116.29 61.04C116.16 46.37 116.02 31.34 115.87 18.38L94.82 11.93C89.84 17.86 82.77 21.52 75.23 21.52C69.04 21.52 63.05 19.29 58.38 15.23C57.29 14.28 56.27 13.23 55.35 12.11L33.9 18.44L34.11 117.8C34.11 118.54 34.56 119.2 35.26 119.47C51.51 125.9 68.9 128.48 86.06 127.17L88.53 103.99L88.68 102.7L88.99 99.79L89.04 99.31L89.56 94.43L90.01 90.19L94.17 91.13C101.57 92.8 109.09 93.98 116.65 94.67C116.53 84 116.41 72.41 116.3 61.02L116.29 61.04ZM45.12 38.68L52.67 28.54C53.16 27.89 53.92 27.5 54.74 27.5C55.57 27.5 56.33 27.9 56.81 28.55L63.96 38.28C64.52 39.05 64.62 40.08 64.2 40.94C63.79 41.8 62.92 42.35 61.96 42.38L47.28 42.79L47.19 42.79C46.21 42.79 45.34 42.23 44.88 41.36C44.46 40.48 44.54 39.44 45.12 38.67L45.12 38.68ZM62.86 48.88L46.21 48.88C45.34 48.88 44.61 48.16 44.61 47.28C44.61 46.39 45.33 45.68 46.21 45.68L62.86 45.68C63.74 45.68 64.46 46.4 64.46 47.28C64.46 48.15 63.75 48.88 62.86 48.88ZM97.99 46.79C94.07 46.79 90.55 44.44 89.06 40.82C87.55 37.2 88.39 33.04 91.16 30.28C93.93 27.5 98.08 26.68 101.7 28.18C105.31 29.67 107.66 33.21 107.66 37.11C107.66 42.46 103.34 46.78 97.99 46.79Z" fill="currentColor" class="service-tile__icon-base" fill-rule="nonzero"/>
	<path d="M128.21 50.14L132.28 52.51L149.85 31.96L146.41 29.11L128.22 50.14L128.21 50.14Z" fill="currentColor" class="service-tile__icon-accent" fill-rule="nonzero"/>
	<path d="M104.47 37.09C104.5 45.72 91.54 45.76 91.52 37.13C91.49 28.5 104.45 28.46 104.47 37.09Z" fill="currentColor" class="service-tile__icon-base" fill-rule="nonzero"/>
</svg>
