<svg width="34.000000" height="34.000000" viewBox="0 0 34 34" fill="none" xmlns="http://www.w3.org/2000/svg" xmlns:xlink="http://www.w3.org/1999/xlink">
	<desc>
			Created with Pixso.
	</desc>
	<defs/>
	<path id="Vector" d="M17 0C7.61 0 0 7.61 0 17C0 26.38 7.61 34 17 34C26.38 34 34 26.38 34 17C34 7.61 26.38 0 17 0ZM23.53 19.17C23.53 19.17 25.04 20.66 25.41 21.35C25.42 21.36 25.42 21.37 25.43 21.38C25.58 21.63 25.61 21.83 25.54 21.98C25.41 22.22 24.99 22.34 24.84 22.36L22.19 22.36C22 22.36 21.62 22.31 21.15 21.99C20.79 21.73 20.44 21.32 20.09 20.92C19.58 20.32 19.13 19.8 18.68 19.8C18.62 19.8 18.57 19.81 18.51 19.83C18.17 19.94 17.74 20.42 17.74 21.72C17.74 22.12 17.42 22.35 17.19 22.35L15.98 22.35C15.56 22.35 13.4 22.21 11.49 20.19C9.15 17.72 7.04 12.77 7.02 12.72C6.89 12.4 7.16 12.23 7.46 12.23L10.15 12.23C10.5 12.23 10.62 12.45 10.7 12.64C10.8 12.86 11.15 13.76 11.73 14.76C12.66 16.4 13.23 17.07 13.69 17.07C13.77 17.07 13.86 17.05 13.93 17.01C14.53 16.67 14.42 14.54 14.4 14.1C14.4 14.01 14.39 13.14 14.09 12.72C13.87 12.42 13.49 12.31 13.27 12.26C13.36 12.14 13.48 12.03 13.62 11.96C14.03 11.76 14.77 11.73 15.51 11.73L15.91 11.73C16.71 11.74 16.92 11.79 17.21 11.86C17.79 12 17.8 12.38 17.75 13.67C17.74 14.04 17.72 14.45 17.72 14.94L17.71 15.28C17.7 15.94 17.68 16.68 18.14 16.99C18.2 17.03 18.27 17.05 18.34 17.05C18.5 17.05 18.99 17.05 20.3 14.79C20.71 14.07 21.06 13.31 21.35 12.54C21.38 12.49 21.46 12.35 21.55 12.29C21.62 12.26 21.69 12.25 21.77 12.24L24.92 12.24C25.27 12.24 25.5 12.29 25.55 12.43C25.63 12.64 25.53 13.28 24.09 15.23L23.45 16.08C22.15 17.79 22.15 17.88 23.53 19.17Z" fill="#FFFFFF" fill-opacity="1.000000" fill-rule="nonzero"/>
</svg>
