<svg width="228.414" height="46" fill="none" xmlns="http://www.w3.org/2000/svg"><path d="M60.7 36.29c2.47-3.7 3.85-8.09 4.01-12.19h-7.1c0 1.37-.47 4.47-1.92 6.62l-6.82-7.57c4.5-2.57 9.14-5.96 9.14-12.21C58.01 4.7 53.08 0 46.57 0c-7.42 0-12.74 5.06-12.74 11.94 0 3.81 2.07 7.23 4.24 9.92-.05.03-.1.08-.14.11-1.5.99-2.98 2.15-4.21 3.54 1.95 1.19 3.16 3.24 3.16 6.51 0 4.19-1.99 6.38-5.01 7.31 2.03 3.78 6.27 6.18 11.88 6.18 4.77 0 8.87-1.55 12.04-3.97l3.57 3.97H69l-8.29-9.22h-.01zM46.41 7c2.88 0 4.39 1.76 4.39 4.31 0 3.26-3.05 5.22-6.31 6.97-1.68-1.94-3.45-3.71-3.45-6.21S43.05 7 46.41 7zm4.45 29.39c-1.76 1.15-3.8 1.81-6.08 1.81-4.16 0-6.49-1.94-6.49-5.19 0-2.3 1.3-3.98 3.05-5.33.39-.3.78-.58 1.21-.85l8.5 9.43c-.12.09-.05.04-.18.13h-.01z" fill="#EE364A"/><path d="M22.6 12.9L19.37 0h-5.69l-3.26 12.9-3-12.9H0l6.32 21.4h7.45l2.76-10.79L19.3 21.4h7.42L33.04 0h-7.46L22.6 12.9zM0 30.25c0 7.46 10.17 6.6 10.17 8.79 0 .71-.54 1.05-2.36 1.05-2.25 0-5.03-.76-7.63-2.51v6.4C2.48 45.29 5.33 46 8.49 46c4.83 0 8.8-1.47 8.8-6.96 0-7.42-10.17-6.41-10.17-8.65 0-.57.45-.94 1.85-.94 2.34-.03 4.91.73 6.94 2.04v-6.12c-2.06-1.12-4.97-1.76-7.69-1.76-4.55 0-8.22 2.13-8.22 6.64zm86.52-8.85h-7.09V0h7.09v7.58h1.56L92.27 0h7.61L93.5 10.61l6.49 10.79h-7.6l-4.45-7.65h-1.42v7.65zm-13.85-7.46c2.1-1.07 3.59-3.05 3.59-6.39C76.26 1.71 71.8 0 67.35 0h-9.72v7.96c.24.93.39 1.92.39 2.98s-.15 2.03-.39 2.93v7.53h7.09v-6.33h1.44l4.31 6.33h7.61l-5.4-7.46h-.01zM67.2 9.79h-2.67V5.75h2.67c1.34 0 2.11.82 2.11 2.01 0 1.2-.76 2.03-2.11 2.03zM81.85 24.1V30c-.76-4.51-4.77-5.9-8.77-5.9H64.7c-.09 2.26-.55 4.59-1.35 6.85v8.28l5.63 6.27h1.45v-6.33h1.44l4.31 6.33h7.61l-5.4-7.46c2.11-1.07 3.6-3.05 3.6-6.39 0-.48-.03-.94-.09-1.37h5.48V45.5h7.09V30.28H100v-6.19H81.86l-.01.01zm-8.93 9.79h-2.66v-4.05h2.66c1.35 0 2.13.83 2.13 2.03 0 1.2-.78 2.02-2.13 2.02zM18.31 24.1v21.41h7.08v-5.6h2.07c5.33 0 9.4-1.89 9.4-7.89 0-5.99-4.07-7.92-9.4-7.92h-9.15zm11.7 7.92c0 1.47-1.02 2.09-2.6 2.09h-2.18v-4.19h2.18c1.58 0 2.6.62 2.6 2.1z" fill="#FFF"/><path d="M122 0v46" stroke="#EE364A" stroke-width="4"/><path d="M171.63 6.42c.42.17.81.41 1.16.7.28.25.55.58.8 1 .24.42.37.94.37 1.58 0 .53-.11 1.03-.31 1.48-.2.46-.49.86-.88 1.2-.37.35-.84.62-1.39.82-.55.19-1.17.29-1.86.29h-6.54V.2h6.12c.69 0 1.3.09 1.83.28.54.18.98.43 1.35.74a3.172 3.172 0 011.14 2.46c0 .48-.1.91-.28 1.25-.19.34-.4.63-.63.86-.25.25-.55.47-.88.63zm-4.96-1.05h1.69c.36 0 .67-.11.91-.33.23-.23.35-.5.35-.82 0-.32-.12-.6-.35-.83-.24-.22-.55-.33-.91-.33h-1.69v2.32-.01zm2.01 5.27c.43 0 .77-.14 1.05-.41.28-.27.43-.59.43-.96s-.14-.68-.43-.96c-.28-.27-.63-.41-1.05-.41h-2.01v2.74h2.01zm19.94-3.79c0 .97-.17 1.87-.52 2.71-.34.83-.82 1.56-1.43 2.17-.62.61-1.33 1.09-2.16 1.44-.82.35-1.7.53-2.65.53-.94 0-1.84-.17-2.65-.53-.82-.35-1.53-.83-2.14-1.44-.62-.61-1.09-1.34-1.44-2.17-.34-.84-.51-1.74-.51-2.71s.17-1.88.51-2.71c.34-.84.82-1.56 1.44-2.17a6.59 6.59 0 012.14-1.45c.81-.34 1.7-.52 2.65-.52.96 0 1.83.17 2.65.52.83.35 1.54.84 2.16 1.45a6.46 6.46 0 011.43 2.17c.35.83.52 1.74.52 2.71zm-9.82 0c0 .48.09.92.25 1.31.16.41.38.75.65 1.04a2.977 2.977 0 002.16.91 2.96 2.96 0 002.17-.91c.27-.29.49-.64.65-1.04.16-.4.25-.84.25-1.31 0-.48-.09-.92-.25-1.32s-.38-.74-.65-1.03c-.28-.28-.6-.51-.97-.67-.38-.17-.77-.25-1.2-.25-.42 0-.82.08-1.19.25-.37.16-.7.38-.97.67-.27.29-.49.63-.65 1.03-.16.41-.25.84-.25 1.32zM196.01.2c.73 0 1.4.12 2.02.36.61.24 1.13.57 1.57.99.44.42.77.92 1.01 1.5.24.57.36 1.21.36 1.89 0 .68-.12 1.32-.36 1.89a4.46 4.46 0 01-1.01 1.5c-.44.43-.96.75-1.57.99-.62.24-1.29.36-2.02.36h-1.9v3.79h-3.69V.2h5.59zm-.31 6.12c.42 0 .77-.14 1.05-.41.28-.27.42-.59.42-.96s-.13-.69-.42-.96c-.28-.28-.63-.41-1.05-.41h-1.59v2.74h1.59zm14.34 7.17l-3.69-5.8v5.8h-3.7V.2h3.7v5.63L209.73.2h4.11l-4.21 6.54 4.64 6.75h-4.23z" fill="#FFF"/><path d="M167.26 21.52h4.08c-.14-.35-.34-.67-.6-.95-.22-.24-.52-.46-.88-.66-.36-.19-.82-.29-1.38-.29-.45 0-.83.08-1.16.25-.32.17-.59.35-.78.55-.24.24-.44.5-.59.78l-3.8-.32c.13-.55.38-1.11.75-1.68.37-.57.84-1.08 1.39-1.52.56-.45 1.2-.82 1.9-1.11.71-.28 1.47-.43 2.29-.43.94 0 1.82.17 2.65.53.82.35 1.54.83 2.15 1.44.61.61 1.09 1.34 1.44 2.17.34.84.51 1.74.51 2.71s-.17 1.88-.51 2.71c-.34.84-.83 1.56-1.44 2.17-.61.62-1.33 1.1-2.15 1.45-.83.34-1.71.52-2.65.52-.82 0-1.59-.14-2.29-.43-.71-.28-1.34-.65-1.9-1.09-.55-.45-1.01-.94-1.39-1.48-.38-.55-.63-1.09-.77-1.63l3.82-.31c.16.28.35.53.6.74.19.19.46.37.78.51.32.15.71.23 1.16.23.55 0 1.01-.1 1.38-.3.37-.19.67-.41.89-.65.21-.24.41-.56.58-.95h-4.08v-2.96zm21.7-5.17v13.29h-3.69v-4.96h-4.54v4.96h-3.7V16.35h3.7v4.75h4.54v-4.75h3.69zm15.09 9.7v6.01h-3.7v-2.42h-6.54v2.42h-3.7v-6.01h.85c.18-.1.34-.23.5-.4.14-.16.28-.35.39-.6.12-.23.21-.54.27-.9l.95-7.8h9.49v9.7h1.49zm-5.17-6.12h-2.75l-.53 4.22c-.06.37-.13.67-.23.91s-.2.44-.31.59c-.13.17-.26.3-.41.41h4.23v-6.13z" fill="#EF384C"/><path d="M169.2 42.41c.48 0 .88-.09 1.21-.27.32-.17.59-.37.78-.57.24-.25.43-.54.55-.85l3.8.32c-.13.6-.38 1.2-.75 1.79-.37.59-.83 1.12-1.39 1.59-.56.47-1.19.85-1.9 1.14-.71.29-1.47.44-2.28.44-.96 0-1.84-.18-2.66-.53-.81-.35-1.53-.84-2.14-1.45a6.639 6.639 0 01-1.44-2.17c-.34-.83-.51-1.74-.51-2.71s.17-1.87.51-2.71c.35-.83.83-1.56 1.44-2.17.61-.61 1.33-1.09 2.14-1.44.82-.35 1.7-.53 2.66-.53.81 0 1.58.15 2.28.43.72.29 1.35.67 1.9 1.14.56.48 1.02 1.01 1.39 1.6.37.59.62 1.19.75 1.79l-3.8.31c-.12-.31-.31-.59-.55-.84-.19-.21-.46-.41-.78-.58-.32-.17-.73-.26-1.21-.26-.42 0-.82.08-1.19.24-.38.16-.7.38-.97.67-.27.29-.49.64-.65 1.04-.16.4-.25.84-.25 1.31 0 .48.09.92.25 1.32s.38.74.65 1.03c.27.28.6.51.97.67.37.17.77.25 1.19.25zm19.85-9.91v13.28h-3.7v-9.7h-4.54v9.7h-3.69V32.5h11.93zm15.3 6.64c0 .97-.18 1.88-.52 2.71a6.46 6.46 0 01-1.43 2.17c-.62.62-1.34 1.1-2.16 1.45-.82.34-1.71.53-2.65.53a6.67 6.67 0 01-4.79-1.98 6.485 6.485 0 01-1.44-2.17 7.11 7.11 0 01-.52-2.71c0-.97.18-1.87.52-2.71.34-.83.82-1.56 1.44-2.17.61-.61 1.32-1.09 2.14-1.44.81-.35 1.7-.53 2.65-.53.96 0 1.83.17 2.65.53.82.35 1.54.83 2.16 1.44.61.61 1.08 1.34 1.43 2.17.34.84.52 1.74.52 2.71zm-9.82 0c0 .48.09.92.25 1.32s.38.74.65 1.03c.27.28.6.51.97.67.37.17.77.25 1.19.25.43 0 .83-.08 1.2-.25.36-.16.69-.38.96-.67.28-.29.5-.63.66-1.03.16-.41.24-.84.24-1.32 0-.47-.08-.92-.24-1.31-.16-.41-.38-.75-.66-1.04-.27-.28-.6-.51-.96-.67-.38-.16-.77-.24-1.2-.24-.42 0-.82.08-1.19.24-.38.16-.7.38-.97.67-.27.29-.49.64-.65 1.04-.16.4-.25.84-.25 1.31zm17.21-6.64c.73 0 1.4.12 2.01.35.62.24 1.14.57 1.58.99.44.43.77.92 1.01 1.5s.36 1.21.36 1.89c0 .69-.12 1.33-.36 1.9a4.56 4.56 0 01-1.01 1.5c-.44.42-.96.75-1.58.98-.61.24-1.28.36-2.01.36h-1.9v3.8h-3.69V32.48h5.59v.02zm-.31 6.11c.42 0 .77-.14 1.05-.41.28-.27.42-.59.42-.96s-.14-.68-.42-.96c-.28-.27-.64-.41-1.05-.41h-1.59v2.74h1.59zm13.4 7.17h-3.7v-9.7h-3.59v-3.59h10.87v3.59h-3.59v9.7h.01z" fill="#FFF"/><path fill="#EE364A" d="M144 0h14v46h-14z"/><path d="M152.06 8.04l-2.53.84 2.53.84V8.04zm1.5 2.16l1.44.48v1.8l-7.56-2.7v-1.8l7.56-2.7v1.8l-1.44.48v2.64zm-6.12 8.59v-4.92h1.68v3.18H155v1.74h-7.56zm0 7.86h4.5l-4.5-3.06v-1.56H155v1.74h-4.5l4.5 3.06v1.56h-7.56v-1.74zm0 4.98H155v1.74h-5.88v2.04l3.6.3c.75.06 1.33.29 1.74.68.4.39.6.9.6 1.54 0 .09-.01.18-.02.27 0 .09 0 .17-.01.23l-.03.22h-1.5v-.24c0-.28-.11-.5-.3-.69-.2-.19-.48-.3-.84-.33l-4.92-.42v-5.34z" fill="#FFF"/></svg>