<svg width="46.707" height="37.976" fill="none" xmlns="http://www.w3.org/2000/svg"><path class="icon-mute_accent" d="M46 23.99l-9.04-9.03" stroke="#EE364A" stroke-width="2"/><path class="icon-mute_base" d="M6 10.67c-3.32 0-6 2.69-6 6v4.58c0 3.32 2.68 6 6 6h8.78V10.67H6zm6.78 2H6q-.48 0-.93.11-.32.07-.63.21-.33.13-.62.32-.35.23-.65.53-.31.31-.53.66-.19.29-.33.62-.13.31-.21.63-.1.45-.1.92v4.58q0 .48.1.93.08.32.21.63.14.33.33.62.22.35.53.65.3.31.65.53.29.19.62.33.31.13.63.21.45.1.93.1h6.78V12.67z" fill="#FFF" fill-rule="evenodd"/><path class="icon-mute_base" d="M30.39 35.91V2.02l-11.5 8.82v15.97l11.5 9.1z" stroke="#FFF" stroke-width="2"/><path class="icon-mute_accent" d="M36.96 23.99L46 14.96" stroke="#EE364A" stroke-width="2"/></svg>