<svg width="34" height="34" fill="none" xmlns="http://www.w3.org/2000/svg"><path d="M17 0C7.61 0 0 7.61 0 17c0 9.38 7.61 17 17 17 9.38 0 17-7.62 17-17 0-9.39-7.62-17-17-17zm7.88 11.55c-.25 2.69-1.36 9.22-1.92 12.23-.24 1.27-.71 1.7-1.15 1.75-.99.08-1.74-.65-2.69-1.28-1.5-.98-2.35-1.59-3.79-2.55-1.68-1.1-.6-1.71.37-2.7.26-.25 4.61-4.21 4.69-4.57.02-.06.02-.11 0-.17a.285.285 0 00-.08-.14c-.1-.08-.24-.05-.36-.03-.15.03-2.53 1.61-7.17 4.74-.68.46-1.29.7-1.84.68-.61-.02-1.76-.34-2.63-.63-1.07-.34-1.91-.52-1.84-1.12.04-.31.46-.61 1.26-.93 4.96-2.16 8.26-3.59 9.91-4.27 4.73-1.97 5.7-2.31 6.34-2.31.14 0 .46.03.66.2.17.14.23.32.24.46-.01.1.02.41 0 .64z" fill="#FFF"/></svg>