<svg width="100.181" height="170" fill="none" xmlns="http://www.w3.org/2000/svg"><path d="M92.19 159l1.88 11-9.86-5.19-9.87 5.19 1.88-11-7.99-7.78 11.04-1.6 4.94-10 4.93 10 11.04 1.6-7.99 7.78z" fill="#EE364A"/><path d="M55.02 147.53c-.74 2.67-1.14 5.47-1.14 8.36v.52H8.39v-1.67c0-3.99 3.23-7.21 7.19-7.21h39.44zm12.38-38.26c2.71 0 4.91 2.2 4.91 4.92v14.28a30.994 30.994 0 00-16.01 15.67H23.03c-2.71 0-4.91-2.19-4.91-4.91v-25.04c0-2.72 2.2-4.92 4.91-4.92h44.38-.01zM73.79 0c1.31 0 2.38 1.06 2.38 2.37v2.38h11.89c1.32 0 2.38 1.08 2.38 2.39V31c-.03 12.23-6.26 23.6-16.54 30.18v.07c.4 6.12 5.68 10.74 11.78 10.33 1.32 0 2.38 1.08 2.38 2.38 0 1.29-1.05 2.37-2.38 2.37-7.57.46-14.35-4.65-16.02-12.08a31.107 31.107 0 01-12.16 9.54 7.106 7.106 0 011.97 4.2c.42 3.88-2.4 7.4-6.3 7.82l5.74 19.17H31.57l5.74-19.17a7.098 7.098 0 01-4.19-1.96c-2.81-2.75-2.89-7.25-.16-10.06a31.036 31.036 0 01-12.16-9.54c-1.68 7.43-8.45 12.54-16.02 12.08-1.31 0-2.39-1.06-2.39-2.37 0-1.32 1.08-2.38 2.39-2.38 6.1.38 11.36-4.29 11.78-10.4C6.25 54.62.04 43.25 0 31.02V7.14c0-1.31 1.07-2.37 2.38-2.37h11.91V2.39c0-1.31 1.05-2.39 2.38-2.39h57.12zM4.75 31.02c.01 9.12 4.03 17.75 10.97 23.66-.96-3.02-1.45-6.18-1.45-9.35V9.54H4.75v21.5-.02zm71.41 14.31v.58c-.06 2.96-.54 5.92-1.45 8.75A31.11 31.11 0 0085.67 31V9.54h-9.51v35.79z" fill="#8C8C8C"/></svg>