<svg viewBox="0 0 104.324 124.3" xmlns="http://www.w3.org/2000/svg"><path class="service-tile__icon-base" d="M50.84 73.87c-.12-.09-.24-.18-.34-.3-.09-.1-.16-.23-.24-.34-.07-.13-.13-.24-.18-.38-.06-.15-.07-.29-.09-.45-.01-.09-.05-.17-.05-.27V33.4c-9.04.51-17.24 4.11-23.59 9.78l1.49 1.49c.86.86.86 2.26 0 3.13-.44.44-1 .65-1.58.65-.58 0-1.13-.21-1.57-.65l-1.48-1.48c-5.67 6.35-9.27 14.55-9.79 23.58h2.11c1.22 0 2.22 1 2.22 2.22 0 1.23-1 2.23-2.22 2.23h-2.11c.52 9.03 4.12 17.23 9.79 23.58l1.48-1.48c.86-.87 2.27-.87 3.14 0 .86.86.86 2.26 0 3.13l-1.49 1.49c6.36 5.67 14.56 9.27 23.59 9.78v-2.1c0-1.23.99-2.23 2.22-2.23 1.22 0 2.22 1 2.22 2.23v2.1c12.63-.72 23.65-7.46 30.22-17.43L51.04 74.04c-.08-.05-.14-.12-.21-.18l.01.01z" fill="currentColor"/><path class="service-tile__icon-accent" d="M54.38 33.41v37.44l32.43 18.73C89.47 84.33 91 78.41 91 72.13c0-20.67-16.25-37.57-36.62-38.73v.01z" fill="currentColor"/><path class="service-tile__icon-base" d="M94.1 41.17l3.57-3.56c.84-.84 1.3-1.95 1.3-3.14 0-1.18-.46-2.3-1.3-3.13l-4.71-4.71c-1.73-1.74-4.55-1.74-6.27 0l-3.57 3.56a51.907 51.907 0 00-23.2-9.63v-5.02h1.11c2.45 0 4.45-1.99 4.45-4.45V4.44c0-2.45-1.99-4.44-4.45-4.44H43.28a4.45 4.45 0 00-4.44 4.44v6.65c0 2.45 1.99 4.45 4.44 4.45h1.11v5.02a51.916 51.916 0 00-23.19 9.63l-3.57-3.56c-1.73-1.74-4.55-1.74-6.27 0l-4.71 4.71a4.42 4.42 0 00-1.3 3.13c0 1.19.47 2.3 1.3 3.14l3.56 3.56C3.8 49.84 0 60.55 0 72.13c0 28.76 23.39 52.17 52.16 52.17 28.76 0 52.16-23.4 52.16-52.17 0-11.58-3.8-22.29-10.22-30.96zm-4.46 52.6c-.08.13-.17.24-.28.35-7.54 12.71-21.38 21.29-37.2 21.29-11.89 0-22.67-4.83-30.5-12.61-.04-.03-.08-.04-.11-.07a.673.673 0 00-.07-.11C13.7 94.79 8.87 84.01 8.87 72.12s4.83-22.66 12.61-30.49c.03-.04.04-.08.07-.11.04-.04.08-.04.11-.07 7.83-7.79 18.61-12.61 30.5-12.61 23.87 0 43.28 19.42 43.28 43.28 0 7.8-2.1 15.1-5.72 21.43-.04.07-.04.14-.07.21l-.01.01z" fill="currentColor"/></svg>