<svg width="100.181" height="170" fill="none" xmlns="http://www.w3.org/2000/svg"><path d="M76.17 2.38C76.17 1.07 75.1 0 73.79 0v.01H16.67c-1.33 0-2.38 1.07-2.38 2.38v2.38H2.38C1.07 4.77 0 5.84 0 7.15v23.87c.04 12.23 6.25 23.6 16.56 30.17-.42 6.11-5.68 10.77-11.78 10.39a2.38 2.38 0 100 4.76c7.57.45 14.35-4.66 16.02-12.08a31.01 31.01 0 0012.16 9.53c-2.73 2.81-2.65 7.32.16 10.06a7.097 7.097 0 004.19 1.96l-5.74 19.17h27.34l-5.74-19.17c3.9-.41 6.72-3.93 6.3-7.82a7.107 7.107 0 00-1.97-4.2 31.08 31.08 0 0012.16-9.53c1.67 7.42 8.45 12.54 16.02 12.08a2.38 2.38 0 100-4.76c-6.09.41-11.38-4.21-11.78-10.33v-.06c10.28-6.58 16.51-17.96 16.54-30.18V7.14c0-1.3-1.06-2.38-2.38-2.38H76.17V2.38zM15.72 54.69A31.165 31.165 0 014.75 31.04V9.54h9.52v35.8c0 3.17.49 6.32 1.45 9.35zm60.44-9.35V9.54h9.51v21.47a31.125 31.125 0 01-10.96 23.66c.91-2.84 1.39-5.79 1.45-8.76v-.57zm-8.75 63.93H23.03c-2.71 0-4.91 2.2-4.91 4.92v25.04c0 2.72 2.2 4.92 4.91 4.92H56.3a31.013 31.013 0 0116.01-15.68v-14.28a4.914 4.914 0 00-4.9-4.92zm24.787 49.738L94.077 170l-9.865-5.187L74.34 170l1.88-10.992-7.985-7.783 11.04-1.601 4.936-10.003 4.929 10.003 11.04 1.601-7.984 7.783zM53.88 155.89c0-2.89.4-5.69 1.14-8.35H15.58c-3.96 0-7.18 3.22-7.18 7.2v1.67h45.48v-.52z" clip-rule="evenodd" fill="#6D6D6D" fill-rule="evenodd"/></svg>