<svg viewBox="0 0 179.593 171.6" xmlns="http://www.w3.org/2000/svg"><path d="M178.42 156.88a47.174 47.174 0 01-11.05 3.52c-.43.08-.88.15-1.31.22-.44.08-.89.14-1.36.19-1.92.25-3.93.39-6.04.37h-1.11a45.26 45.26 0 01-18.51-4.73l-1.42-11.84h-10.05c-.49 4.02-.96 8.04-1.45 12.06-4.84 2.3-11.67 4.55-19.88 4.55-.5 0-1.01 0-1.52-.03-6.19-.22-12.4-1.78-18-4.49l3.19-29.84 2.39-22.41c.87.19 1.73.36 2.61.54.69.14 1.36.27 2.05.4.57.11 1.14.22 1.72.32.68.12 1.35.24 2.02.36.51.08 1.02.17 1.52.24.82.13 1.66.26 2.49.39.94.13 1.88.27 2.82.4 2.14.28 4.26.53 6.42.72.94.09 1.87.19 2.81.26 2.43.21 4.88.36 7.32.47.24 0 .48.02.72.03.84.04 1.68.07 2.52.08.88.03 1.76.05 2.64.06.8 0 1.6.02 2.4.02h.21c13.54 0 27.1-1.45 40.35-4.3 1.83 16.57 3.64 35.89 5.47 52.49l.03-.05z" fill="currentColor" class="service-tile__icon-base"/><path d="M172.43 99.71c-13.06 2.85-26.46 4.3-39.82 4.3h-.2c-5.23 0-10.48-.24-15.69-.69-8.04-.68-16.03-1.88-23.91-3.6l.51-4.87c6.61 1.49 14.46 2.86 23.35 3.66 4.94.43 10.2.7 15.75.71h.18c3.91 0 7.66-.12 11.28-.36 1.8-.11 3.54-.24 5.25-.4 1.74-.17 3.44-.35 5.1-.55 1.63-.21 3.23-.42 4.77-.66 4.69-.69 9-1.52 12.87-2.4.19 1.58.38 3.2.56 4.86zm-46.95 62.34l-.55 4.61c-.29.16-.63.31-.98.47-.17.08-.35.16-.54.24-.2.08-.39.17-.58.25-.2.08-.39.18-.61.26-.63.26-1.32.53-2.06.79-.35.13-.72.25-1.1.39-.38.12-.78.24-1.18.36l-.93.27c-.1.03-.21.06-.31.08l-.82.21c-.4.09-.78.19-1.2.27-.45.09-.9.19-1.38.27h-.02c-.48.1-.96.18-1.45.25h-.03c-.49.08-1 .14-1.5.2-1.04.11-2.13.2-3.26.24-.55.02-1.11.03-1.67.03h-.66a44.341 44.341 0 01-19.01-4.59l.55-5.05a50.067 50.067 0 0018.35 4.24c.59.02 1.16.03 1.73.03 7.63 0 14.15-1.75 19.19-3.82h.02zm54.05 4.61c-.12.08-.25.14-.41.22-.13.07-.27.14-.42.22-.3.14-.63.3-.97.46-.27.12-.56.26-.87.4-.25.11-.53.23-.79.34-.27.11-.55.24-.86.36-.62.24-1.29.49-2 .72-.39.13-.8.26-1.21.4-.41.12-.85.24-1.28.37-.45.11-.89.23-1.37.34-.46.11-.93.22-1.41.31-.49.1-.98.19-1.49.27-.5.08-1.02.15-1.53.22-.53.07-1.06.11-1.61.16s-1.1.09-1.67.11a37.522 37.522 0 01-3.81-.02c-8.06-.41-14.16-3.09-17.51-4.87l-.57-4.79c5.61 2.39 11.66 3.76 17.71 3.97.57.02 1.16.03 1.73.03 7.94 0 14.7-1.9 19.83-4.09.19 1.67.39 3.3.57 4.88l-.06-.01z" fill="currentColor" class="service-tile__icon-accent"/><path d="M100.4.01c-.94 3.53-2.25 6.6-3.81 9.36l19.48 5.74.02-10.87L100.41 0l-.01.01zm-50.85 0c.94 3.53 2.24 6.6 3.81 9.36l-19.48 5.74-.02-10.87L49.54 0l.01.01zm5.17 31.12l-6.28 8.43 12.22-.33-5.95-8.1h.01zM7.27 25.9l17.71 22.28 5.77-3.37-.08-38.39-23.4 19.47v.01z" fill="currentColor" class="service-tile__icon-base"/><path d="M0 31.96l17.57 20.55 4.62-2.69L4.8 27.96l-4.8 4z" fill="currentColor" class="service-tile__icon-accent"/><path d="M60.48 12.83c4.08 3.55 9.33 5.5 14.74 5.5 9.71 0 18.5-6.99 22.01-17.06-9.1 4.73-21.54 8.74-34.18 5.22-3.4-.93-6.63-2.38-9.59-4.31 1.35 4.1 3.77 7.78 7.01 10.65h.01zm58.44-6.51c.14 10.95.28 24.56.41 38.65l6.07 3.53 18.55-21.43-25.03-20.75z" fill="currentColor" class="service-tile__icon-base"/><path d="M116.29 61.04c-.13-14.67-.27-29.7-.42-42.66l-21.05-6.45c-4.98 5.93-12.05 9.59-19.59 9.59-6.19 0-12.18-2.23-16.85-6.29-1.09-.95-2.11-2-3.03-3.12L33.9 18.44l.21 99.36c0 .74.45 1.4 1.15 1.67 16.25 6.43 33.64 9.01 50.8 7.7l2.47-23.18.15-1.29.31-2.91.05-.48.52-4.88.45-4.24 4.16.94c7.4 1.67 14.92 2.85 22.48 3.54-.12-10.67-.24-22.26-.35-33.65l-.01.02zM45.12 38.68l7.55-10.14a2.572 2.572 0 014.14.01l7.15 9.73c.56.77.66 1.8.24 2.66a2.56 2.56 0 01-2.24 1.44l-14.68.41h-.09c-.98 0-1.85-.56-2.31-1.43-.42-.88-.34-1.92.24-2.69v.01zm17.74 10.2H46.21c-.87 0-1.6-.72-1.6-1.6 0-.89.72-1.6 1.6-1.6h16.65c.88 0 1.6.72 1.6 1.6 0 .87-.71 1.6-1.6 1.6zm35.13-2.09a9.64 9.64 0 01-8.93-5.97 9.638 9.638 0 012.1-10.54 9.641 9.641 0 0110.54-2.1 9.666 9.666 0 015.96 8.93c0 5.35-4.32 9.67-9.67 9.68z" fill="currentColor" class="service-tile__icon-base"/><path d="M128.21 50.14l4.07 2.37 17.57-20.55-3.44-2.85-18.19 21.03h-.01z" fill="currentColor" class="service-tile__icon-accent"/><path d="M104.47 37.09c.03 8.63-12.93 8.67-12.95.04-.03-8.63 12.93-8.67 12.95-.04z" fill="currentColor" class="service-tile__icon-base"/></svg>