<svg viewBox="0 0 155.639 154" fill="none" xmlns="http://www.w3.org/2000/svg"><path d="M18.17 70.68l11.16-6.72V9.97L0 39.88l18.17 30.8zm107.88-60.2v53.23l10.77 6.97 18.81-30.55-29.58-29.65z" class="service-tile__icon-accent" fill="currentColor"/><path d="M102.78 2.08L98.66.82 95.95 0l-1.41 1L82.4 9.64l-4.12 2.93-.49.34-3.63-2.73-11.59-8.73L60.64 0l-2.19.57-4.12 1.08-19.01 5.01V122.6h61.7c.92-5.01 2.92-9.62 5.76-13.62V10.7l9.23 2.82v86.57a33.86 33.86 0 018.24-3.96V7.42l-17.47-5.34zM54.33 114.36H43.56V13l10.77-2.82v104.18zm19.83 0H62.57V11.76l10.26 7.74 1.33.99v93.87zm20.38 0H82.4V19.74l.17-.12 11.97-8.51v103.25z" class="service-tile__icon-base" fill="currentColor"/><path d="M143.86 126.75l-19.93 26.94c-.18.24-.49.35-.79.29a.789.789 0 01-.6-.93l4.8-19.85c0-.06.01-.12.01-.18 0-.43-.34-.79-.77-.79h-7.97c-.16 0-.33-.03-.47-.12a.801.801 0 01-.22-1.09l19.94-26.92a.783.783 0 011.39.63l-4.74 19.84c-.01.07-.01.12-.01.18 0 .43.34.78.77.78h7.97c.15.01.29.06.41.14.36.24.46.72.21 1.08z" class="service-tile__icon-accent" fill="currentColor"/><path d="M143.86 126.75l-19.93 26.94c-.18.24-.49.35-.79.29a.789.789 0 01-.6-.93l4.8-19.85c0-.06.01-.12.01-.18 0-.43-.34-.79-.77-.79h-7.97c-.16 0-.33-.03-.47-.12a.801.801 0 01-.22-1.09l19.94-26.92a.783.783 0 011.39.63l-4.74 19.84c-.01.07-.01.12-.01.18 0 .43.34.78.77.78h7.97c.15.01.29.06.41.14.36.24.46.72.21 1.08z" class="service-tile__icon-accent" fill="currentColor"/></svg>