<svg viewBox="0 0 153.94 157.3" xmlns="http://www.w3.org/2000/svg"><path class="service-tile__icon-base" d="M153.94 128.63c-.16-3.64 0-7.28-.47-10.93-2.39-13.63-12.83-23.76-26.77-25.65-4.44-.63-9.03-.63-13.63-1.12-7.6-.95-14.25-4.11-19.16-10.3-4.91-6.18-7.45-13.47-9.66-20.9-1.12-3.64-3.48-5.87-6.98-6.02-3.32-.16-6.02 2.05-7.13 5.7-1.27 3.81-2.54 7.77-4.11 11.56-3.01 7.28-7.61 13.47-14.9 17.11-4.59 2.21-9.35 3.17-14.41 3.32-3.17.16-6.34.16-9.5.79C12.49 94.57 2.03 105.03.45 119.44c-.79 6.34-.32 12.83-.32 19.16 0 3.81 2.86 6.65 6.81 6.98 3.48.16 6.81-2.54 7.28-6.18.15-1.42.15-3.01.15-4.43v-11.09c0-.63.16-1.58.96-1.74.63 0 1.11.78 1.27 1.43.16.47.16 1.11.16 1.58v28.19c0 3.01.95 3.96 3.95 3.96h31.05c3.16 0 3.95-.96 3.95-3.96v-49.58c0-1.74.47-2.7 2.05-3.32 5.71-2.86 10.46-6.81 14.26-12.05 1.74-2.38 3.32-4.91 5.22-7.6.31.47.47.78.63 1.11 4.43 8.08 10.61 14.57 19 18.69 1.27.63 1.43 1.59 1.43 2.86v50.05c0 2.85.78 3.64 3.64 3.64h31.36c3.01 0 3.95-.79 3.95-3.95v-29.31c0-.63.31-1.74 1.11-1.74.96 0 1.27.96 1.43 1.74.16.47.16 1.11.16 1.74v12.83c0 4.28 2.85 7.13 6.8 7.13 3.96 0 7.14-2.85 7.14-7.13v-9.83l.05.01z" fill="#8C8C8C"/><path class="service-tile__icon-base" d="M34.98 86.5c9.03 0 16.46-7.45 16.46-16.17 0-9.66-7.13-16.95-16.79-16.95s-16.47 7.45-16.47 16.63c0 9.19 7.61 16.49 16.8 16.49zm84.11-.01c9.35 0 16.64-7.27 16.64-16.46-.16-9.19-7.28-16.48-16.31-16.48-9.03 0-16.64 7.27-16.79 16.31 0 9.03 7.45 16.63 16.46 16.63zM77.11 48.95c.96 0 1.59-.62 1.59-1.58v-7.29c0-.96-.63-1.58-1.59-1.58-.95 0-1.58.62-1.58 1.58v7.27c0 .96.64 1.59 1.58 1.59v.01zm9.35 4.44c.31 0 .78-.15 1.11-.31l6.02-5.22c.63-.63.79-1.59.16-2.21-.63-.63-1.58-.79-2.21-.16l-6.02 5.22c-.63.63-.79 1.58-.16 2.21.32.32.63.47 1.12.47h-.02zm-19.96-.47c.31.32.62.32 1.11.32.49 0 .96-.16 1.27-.48.63-.62.47-1.58-.16-2.21l-6.02-5.22c-.62-.63-1.58-.47-2.21.16-.63.63-.47 1.58.16 2.21l5.86 5.22h-.01z" fill="#8C8C8C"/><path class="service-tile__icon-base" d="M82.96 14.96l1.45 8.48-7.61-4.01-7.62 4.01 1.45-8.48-6.16-6.01 8.52-1.24L76.8 0l3.8 7.71 8.52 1.24-6.16 6.01z" fill="#EE364A"/><path class="service-tile__icon-base" d="M82.96 14.96l1.45 8.48-7.61-4.01-7.62 4.01 1.45-8.48-6.16-6.01 8.52-1.24L76.8 0l3.8 7.71 8.52 1.24-6.16 6.01z" fill="#EE364A"/><path class="service-tile__icon-accent" d="M123.28 17.86l.95 5.58-5-2.63-5.01 2.63.95-5.58-4.05-3.94 5.6-.82 2.51-5.07 2.5 5.07 5.59.82-4.04 3.94z" fill="#EE364A"/><path class="service-tile__icon-accent" d="M123.28 17.86l.95 5.58-5-2.63-5.01 2.63.95-5.58-4.05-3.94 5.6-.82 2.51-5.07 2.5 5.07 5.59.82-4.04 3.94zm-84.86 0l.96 5.58-5.01-2.63-5 2.63.95-5.58-4.05-3.94 5.6-.82 2.5-5.07 2.5 5.07 5.6.82-4.05 3.94z" fill="#EE364A"/><path class="service-tile__icon-accent" d="M38.42 17.86l.96 5.58-5.01-2.63-5 2.63.95-5.58-4.05-3.94 5.6-.82 2.5-5.07 2.5 5.07 5.6.82-4.05 3.94z" fill="#EE364A"/></svg>