<svg viewBox="0 0 180 98" xmlns="http://www.w3.org/2000/svg"><path d="M58.92 13.69c.91.36 1.72.86 2.48 1.48.6.54 1.16 1.25 1.7 2.14.52.89.79 2 .79 3.35 0 1.15-.23 2.2-.66 3.16a7.46 7.46 0 01-1.87 2.57c-.8.73-1.8 1.31-2.98 1.74-1.17.41-2.49.62-3.95.62H40.47V.44h13.05c1.48 0 2.78.19 3.91.58 1.15.38 2.1.92 2.89 1.59.77.66 1.38 1.45 1.8 2.36.41.9.62 1.85.62 2.87 0 1.03-.21 1.95-.61 2.68-.4.72-.85 1.33-1.32 1.82-.54.53-1.18.99-1.89 1.35zm-10.57-2.24h3.6c.77 0 1.42-.24 1.93-.71.51-.48.76-1.07.76-1.75 0-.69-.25-1.28-.76-1.75-.51-.48-1.16-.72-1.93-.72h-3.6v4.94-.01zm4.28 11.23c.91 0 1.65-.3 2.25-.87.59-.58.9-1.27.9-2.05 0-.79-.29-1.46-.9-2.05-.6-.58-1.36-.87-2.25-.87h-4.28v5.84h4.28zm42.52-8.09c0 2.07-.37 4-1.1 5.78-.73 1.78-1.75 3.32-3.06 4.63a14.38 14.38 0 01-4.6 3.07c-1.75.74-3.64 1.12-5.65 1.12-2 0-3.92-.37-5.66-1.12A14.48 14.48 0 0170.52 25c-1.31-1.31-2.32-2.85-3.07-4.63-.72-1.78-1.1-3.71-1.1-5.78 0-2.06.38-3.99 1.1-5.77.73-1.78 1.76-3.32 3.07-4.63 1.3-1.3 2.82-2.33 4.56-3.07C76.82.38 78.71 0 80.74 0c2.04 0 3.9.37 5.65 1.12 1.76.74 3.29 1.78 4.6 3.07 1.31 1.31 2.32 2.85 3.06 4.63.73 1.78 1.1 3.71 1.1 5.77zm-20.93 0c0 1.03.18 1.96.52 2.81.34.86.82 1.59 1.4 2.2.58.6 1.27 1.09 2.06 1.43.79.35 1.64.52 2.54.52.91 0 1.76-.17 2.55-.52.79-.34 1.48-.81 2.06-1.43a6.9 6.9 0 001.4-2.2c.34-.86.52-1.8.52-2.81 0-1-.18-1.95-.52-2.8-.34-.86-.82-1.59-1.4-2.2a6.35 6.35 0 00-4.61-1.95c-.9 0-1.75.17-2.54.52-.8.34-1.48.81-2.06 1.43a6.9 6.9 0 00-1.4 2.2c-.34.86-.52 1.8-.52 2.8zM110.91.44c1.56 0 2.99.25 4.3.76 1.31.5 2.42 1.21 3.36 2.1.93.91 1.65 1.96 2.15 3.19.51 1.24.76 2.59.76 4.04 0 1.45-.25 2.82-.76 4.04a9.457 9.457 0 01-2.15 3.19c-.94.9-2.05 1.6-3.36 2.1-1.31.51-2.74.76-4.3.76h-4.04v8.09h-7.88V.44h11.92zm-.67 13.03c.91 0 1.65-.3 2.25-.88.59-.58.9-1.26.9-2.05 0-.78-.29-1.45-.9-2.04-.6-.58-1.36-.88-2.25-.88h-3.37v5.85h3.37zm30.6 15.28l-7.88-12.36v12.36h-7.88V.44h7.88v11.99L140.17.44h8.77l-9 13.93 9.91 14.38h-9.01z" class="service-tile__icon-base" fill="currentColor"/><path d="M49.61 45.84h8.69c-.3-.74-.72-1.42-1.27-2.02-.47-.5-1.11-.98-1.89-1.39-.77-.42-1.75-.62-2.92-.62-.97 0-1.79.17-2.49.53-.68.36-1.25.74-1.66 1.17-.51.51-.94 1.07-1.27 1.66l-8.08-.68c.26-1.17.8-2.36 1.59-3.57.78-1.22 1.78-2.3 2.97-3.25 1.19-.97 2.54-1.75 4.04-2.36 1.52-.61 3.14-.92 4.88-.92 2.01 0 3.9.37 5.65 1.13 1.75.74 3.29 1.78 4.59 3.07 1.31 1.3 2.32 2.85 3.07 4.63.72 1.78 1.1 3.71 1.1 5.77 0 2.06-.38 3.99-1.1 5.77-.73 1.78-1.76 3.32-3.07 4.63-1.3 1.3-2.84 2.33-4.59 3.07-1.75.74-3.64 1.13-5.65 1.13-1.74 0-3.37-.31-4.88-.92-1.51-.61-2.87-1.4-4.04-2.33-1.19-.95-2.17-2.01-2.97-3.16-.81-1.17-1.34-2.32-1.64-3.46l8.15-.67c.33.6.74 1.13 1.26 1.58.42.41.98.78 1.67 1.09.68.32 1.51.48 2.48.48 1.17 0 2.16-.21 2.94-.62.79-.42 1.43-.9 1.89-1.4.46-.5.88-1.19 1.24-2.02h-8.69v-6.32zm46.27-10.99v28.29H88V52.59h-9.68v10.55h-7.88V34.85h7.88v10.1H88v-10.1h7.88zm32.17 20.65v12.81h-7.88v-5.17h-13.96v5.17h-7.88V55.5h1.8c.39-.21.74-.49 1.09-.86.29-.33.58-.74.83-1.26.25-.51.45-1.16.56-1.93l2.03-16.62h20.24V55.5h3.17zm-11.03-13.03h-5.86l-1.13 9c-.12.77-.28 1.42-.49 1.92-.21.51-.43.94-.67 1.27-.26.35-.55.63-.86.86h9.01V42.47z" class="service-tile__icon-accent" fill="currentColor"/><path d="M53.75 90.35c1.02 0 1.87-.19 2.57-.56.68-.37 1.25-.79 1.66-1.23.51-.54.91-1.14 1.18-1.8l8.1.67c-.27 1.29-.8 2.57-1.59 3.81-.8 1.27-1.78 2.39-2.97 3.4-1.19 1.01-2.55 1.81-4.05 2.44-1.51.6-3.13.92-4.87.92-2.04 0-3.93-.38-5.67-1.13-1.74-.74-3.25-1.78-4.56-3.07-1.31-1.31-2.32-2.85-3.06-4.63-.73-1.78-1.1-3.71-1.1-5.78 0-2.06.37-3.99 1.1-5.77.72-1.78 1.75-3.32 3.06-4.63 1.31-1.3 2.82-2.33 4.56-3.07 1.74-.74 3.63-1.12 5.67-1.12 1.74 0 3.37.31 4.87.92 1.52.6 2.87 1.42 4.05 2.43 1.19 1.01 2.17 2.14 2.97 3.4.79 1.26 1.32 2.53 1.59 3.81l-8.1.67c-.27-.66-.66-1.26-1.18-1.8-.41-.44-.98-.86-1.66-1.23-.68-.37-1.55-.56-2.57-.56-.91 0-1.76.17-2.54.52-.81.34-1.49.81-2.07 1.43-.58.61-1.06 1.36-1.4 2.2-.34.86-.52 1.8-.52 2.8 0 1.01.18 1.96.52 2.81.34.86.82 1.59 1.4 2.2.58.6 1.28 1.09 2.07 1.43.78.35 1.63.52 2.54.52zm42.31-21.11v28.29h-7.88V76.87H78.5v20.66h-7.88V69.24h25.44zm32.63 14.15c0 2.07-.37 4-1.1 5.78-.73 1.78-1.75 3.32-3.06 4.63a14.38 14.38 0 01-4.6 3.07c-1.75.74-3.64 1.13-5.65 1.13-2 0-3.92-.38-5.66-1.13a14.48 14.48 0 01-4.56-3.07c-1.31-1.31-2.32-2.85-3.07-4.63-.73-1.78-1.1-3.71-1.1-5.78 0-2.06.37-3.99 1.1-5.77.73-1.78 1.76-3.32 3.07-4.63 1.3-1.3 2.82-2.33 4.56-3.07 1.74-.74 3.63-1.12 5.66-1.12 2.04 0 3.9.37 5.65 1.12 1.76.74 3.29 1.78 4.6 3.07 1.31 1.31 2.32 2.85 3.06 4.63.73 1.78 1.1 3.71 1.1 5.77zm-20.93 0c0 1.03.18 1.96.52 2.81.34.86.82 1.59 1.4 2.2.58.6 1.27 1.09 2.06 1.43.79.35 1.64.52 2.54.52.91 0 1.76-.17 2.55-.52.78-.34 1.48-.81 2.06-1.43a6.9 6.9 0 001.4-2.2c.34-.86.52-1.8.52-2.81 0-1-.18-1.95-.52-2.8-.34-.86-.82-1.59-1.4-2.2a6.46 6.46 0 00-2.06-1.43c-.81-.35-1.64-.52-2.55-.52-.9 0-1.75.17-2.54.52-.8.34-1.48.81-2.06 1.43-.58.61-1.06 1.36-1.4 2.2-.34.86-.52 1.8-.52 2.8zm36.69-14.15c1.56 0 2.99.25 4.3.76 1.3.5 2.42 1.21 3.36 2.1.93.91 1.64 1.96 2.15 3.19.51 1.24.76 2.59.76 4.04 0 1.45-.25 2.82-.76 4.04a9.604 9.604 0 01-2.15 3.19c-.94.9-2.06 1.6-3.36 2.1-1.31.51-2.74.76-4.3.76h-4.04v8.09h-7.88v-28.3h11.92v.03zm-.67 13.03c.91 0 1.65-.3 2.25-.88.59-.58.9-1.26.9-2.05 0-.78-.3-1.45-.9-2.04-.6-.58-1.36-.88-2.25-.88h-3.37v5.85h3.37zm28.57 15.27h-7.88V76.87h-7.65v-7.64H180v7.64h-7.66v20.67h.01z" class="service-tile__icon-base" fill="currentColor"/><path fill="#EE364A" d="M0 0h29.853v98H0z"/><path d="M17.18 17.14l-5.37 1.79 5.37 1.79v-3.58zm3.2 4.6l3.07 1.02v3.84L7.33 20.85v-3.84l16.12-5.75v3.83l-3.07 1.03v5.62zM7.33 40.03V29.55h3.58v6.77h12.54v3.71H7.33zm0 16.76h9.6l-9.6-6.52v-3.33h16.12v3.71h-9.59l9.59 6.52v3.32H7.33v-3.7zm0 10.59h16.12v3.71H10.91v4.35l7.68.64c1.6.13 2.84.62 3.71 1.45.85.84 1.28 1.93 1.28 3.28 0 .2-.01.4-.03.58 0 .19-.01.35-.02.49-.02.17-.04.32-.08.46h-3.2v-.51c0-.58-.21-1.07-.64-1.46-.42-.41-1.02-.65-1.79-.72l-10.49-.89V67.38z" fill="#FFF"/></svg>