<svg width="34" height="34" fill="none" xmlns="http://www.w3.org/2000/svg"><path d="M17 0C7.61 0 0 7.61 0 17c0 9.38 7.61 17 17 17 9.38 0 17-7.62 17-17 0-9.39-7.62-17-17-17zm6.53 19.17s1.51 1.49 1.88 2.18c.01.01.01.02.02.03.15.25.18.45.11.6-.13.24-.55.36-.7.38h-2.65c-.19 0-.57-.05-1.04-.37-.36-.26-.71-.67-1.06-1.07-.51-.6-.96-1.12-1.41-1.12-.06 0-.11.01-.17.03-.34.11-.77.59-.77 1.89 0 .4-.32.63-.55.63h-1.21c-.42 0-2.58-.14-4.49-2.16-2.34-2.47-4.45-7.42-4.47-7.47-.13-.32.14-.49.44-.49h2.69c.35 0 .47.22.55.41.1.22.45 1.12 1.03 2.12.93 1.64 1.5 2.31 1.96 2.31.08 0 .17-.02.24-.06.6-.34.49-2.47.47-2.91 0-.09-.01-.96-.31-1.38-.22-.3-.6-.41-.82-.46.09-.12.21-.23.35-.3.41-.2 1.15-.23 1.89-.23h.4c.8.01 1.01.06 1.3.13.58.14.59.52.54 1.81-.01.37-.03.78-.03 1.27l-.01.34c-.01.66-.03 1.4.43 1.71.06.04.13.06.2.06.16 0 .65 0 1.96-2.26.41-.72.76-1.48 1.05-2.25.03-.05.11-.19.2-.25.07-.03.14-.04.22-.05h3.15c.35 0 .58.05.63.19.08.21-.02.85-1.46 2.8l-.64.85c-1.3 1.71-1.3 1.8.08 3.09z" fill="#FFF"/></svg>